<svg width="70" height="70" fill="none" xmlns="http://www.w3.org/2000/svg"><circle cx="35" cy="35" r="34.25" stroke="#fff" stroke-width="1.5"/><path d="m39.495 39.282-.004-.246H29.535l-.004.246a3.889 3.889 0 0 1-7.776 0l-.005-.246h-3.553a.633.633 0 0 1-.634-.633v-5.046c0-.259.155-.481.378-.58l.008-.003.008-.004 8.612-4.53a.633.633 0 0 1 .926.56l.002 3.674v.25H29.2v-2.337c0-.35.284-.633.633-.633h3.988c.35 0 .634.283.634.633v2.337h4.876V31.34l-.073-.073-3.281-3.281a.59.59 0 0 1-.194-.464.672.672 0 0 1 .202-.424.673.673 0 0 1 .423-.203.589.589 0 0 1 .465.195l3.54 3.54a.63.63 0 0 1 .186.448v1.645h6.224c3.09 0 5.617 2.526 5.617 5.617 0 .368-.314.659-.682.631h-.022l-4.217.05-.244.002-.003.244a3.889 3.889 0 0 1-7.777.014zm-10.305-1.66.066.147H39.77l.066-.147a3.89 3.89 0 0 1 7.093-.004l.068.15.163-.003 3.672-.043.307-.004-.065-.3a4.37 4.37 0 0 0-4.25-3.427H26.862a.633.633 0 0 1-.633-.634v-3.511l-.367.193-6.9 3.628-.133.07v4.032h3.199l.066-.147a3.89 3.89 0 0 1 7.095 0zm3.747-4.898h.25V31.02h-2.72v1.703h2.47zm7.825 6.493a2.622 2.622 0 1 0 5.243 0 2.622 2.622 0 0 0-5.243 0zm-15.12-2.621a2.621 2.621 0 1 0 0 5.242 2.621 2.621 0 0 0 0-5.242z" fill="#fff" stroke="#000" stroke-width=".5"/></svg>