<svg width="16" height="16" fill="none" xmlns="http://www.w3.org/2000/svg"><g fill="#0094F4" clip-path="url(#a)"><path d="M15.674 1.633h-1.796V.327A.327.327 0 0 0 13.55 0h-1.96a.327.327 0 0 0-.326.327v1.306H9.306V.327A.327.327 0 0 0 8.98 0H7.02a.327.327 0 0 0-.326.327v1.306h-1.96V.327A.327.327 0 0 0 4.409 0H2.45a.327.327 0 0 0-.327.327v1.306H.327A.327.327 0 0 0 0 1.959v3.102h16V1.96a.327.327 0 0 0-.326-.326zm-11.592.98H2.776V.652h1.306v1.96zm4.571 0H7.347V.652h1.306v1.96zm4.572 0h-1.307V.652h1.307v1.96zM0 15.674c0 .18.146.326.327.326h15.347c.18 0 .326-.146.326-.326V5.78H0v9.893zm11.837-8.686c0-.135.11-.245.245-.245h1.632c.136 0 .245.11.245.245V8.62c0 .136-.11.245-.245.245h-1.632a.245.245 0 0 1-.245-.245V6.988zm0 2.939c0-.136.11-.245.245-.245h1.632c.136 0 .245.11.245.245v1.632c0 .135-.11.245-.245.245h-1.632a.245.245 0 0 1-.245-.245V9.927zm0 2.938c0-.135.11-.245.245-.245h1.632c.136 0 .245.11.245.245v1.633c0 .135-.11.245-.245.245h-1.632a.245.245 0 0 1-.245-.245v-1.633zM8.57 6.988c0-.135.11-.245.245-.245h1.633c.135 0 .245.11.245.245V8.62c0 .136-.11.245-.245.245H8.816a.245.245 0 0 1-.245-.245V6.988zm0 2.939c0-.136.11-.245.245-.245h1.633c.135 0 .245.11.245.245v1.632c0 .135-.11.245-.245.245H8.816a.245.245 0 0 1-.245-.245V9.927zm0 2.938c0-.135.11-.245.245-.245h1.633c.135 0 .245.11.245.245v1.633c0 .135-.11.245-.245.245H8.816a.245.245 0 0 1-.245-.245v-1.633zM5.306 6.988c0-.135.11-.245.245-.245h1.633c.135 0 .245.11.245.245V8.62c0 .136-.11.245-.245.245H5.55a.245.245 0 0 1-.245-.245V6.988zm0 2.939c0-.136.11-.245.245-.245h1.633c.135 0 .245.11.245.245v1.632c0 .135-.11.245-.245.245H5.55a.245.245 0 0 1-.245-.245V9.927zm0 2.938c0-.135.11-.245.245-.245h1.633c.135 0 .245.11.245.245v1.633c0 .135-.11.245-.245.245H5.55a.245.245 0 0 1-.245-.245v-1.633zM2.041 6.988c0-.135.11-.245.245-.245h1.632c.136 0 .245.11.245.245V8.62c0 .136-.11.245-.245.245H2.286a.245.245 0 0 1-.245-.245V6.988zm0 2.939c0-.136.11-.245.245-.245h1.632c.136 0 .245.11.245.245v1.632c0 .135-.11.245-.245.245H2.286a.245.245 0 0 1-.245-.245V9.927zm0 2.938c0-.135.11-.245.245-.245h1.632c.136 0 .245.11.245.245v1.633c0 .135-.11.245-.245.245H2.286a.245.245 0 0 1-.245-.245v-1.633z"/></g><defs><clipPath id="a"><path fill="#fff" d="M0 0h16v16H0z"/></clipPath></defs></svg>