<svg xmlns="http://www.w3.org/2000/svg" width="30" height="30" fill="none" xmlns:v="https://vecta.io/nano"><g clip-path="url(#A)" fill="#0094f4"><path d="M15 0C6.716 0 0 6.716 0 15s6.716 15 15 15 15-6.716 15-15S23.284 0 15 0zm7.537 12.33l-3.669 3.669a2.09 2.09 0 0 1-1.489.617 2.09 2.09 0 0 1-1.489-.617l-.144-.144-.391.391.143.143a2.11 2.11 0 0 1 0 2.979l-3.668 3.669c-.398.398-.927.617-1.49.617s-1.092-.219-1.49-.617L7.464 21.65a2.11 2.11 0 0 1 0-2.979l3.669-3.668c.398-.398.927-.617 1.49-.617s1.092.219 1.49.617l.143.143.391-.391-.143-.143a2.11 2.11 0 0 1-.001-2.979l3.669-3.669c.398-.398.927-.617 1.49-.617s1.092.219 1.49.617l1.387 1.387a2.11 2.11 0 0 1-.001 2.979zm-8.283 5.016l-.709.709-1.1-1.1.709-.709-.143-.143a.55.55 0 0 0-.389-.161c-.147 0-.285.057-.389.161l-3.669 3.668a.55.55 0 0 0 0 .778l1.387 1.387c.208.208.571.208.779 0l3.668-3.668a.55.55 0 0 0 0-.779l-.143-.143zm5.795-8.282a.55.55 0 0 0-.39-.161c-.147 0-.286.057-.39.162L15.6 12.733a.55.55 0 0 0 0 .779l.143.143 1.088-1.088 1.1 1.1-1.088 1.088.143.143c.208.208.57.208.779 0l3.668-3.668a.55.55 0 0 0 0-.779l-1.387-1.387z"/></g><defs><clipPath id="A"><path fill="#fff" d="M0 0h30v30H0z"/></clipPath></defs></svg>