<svg width="70" height="70" fill="none" xmlns="http://www.w3.org/2000/svg"><circle cx="35" cy="35" r="34.25" stroke="#fff" stroke-width="1.5"/><path fill-rule="evenodd" clip-rule="evenodd" d="M47.5 32.175 45 33.45v9.05c-1.259 2.551-7.008 3.75-10.625 3.75-3.969 0-9.236-1.242-10.625-3.75v-9.745L20 30.385l15-6.635 13.75 7.789V42.5L50 46.25h-3.75l1.25-3.75V32.175zM25 33.544v8.591c1.198 1.6 5.271 2.865 9.375 2.865 3.617 0 8.236-1.199 9.375-2.836v-8.078l-9.904 5.049L25 33.544zm-2.351-2.964 11.264 7.117L46.11 31.48l-11.18-6.332L22.65 30.58z" fill="#fff"/></svg>