<svg width="20" height="20" viewBox="0 0 20 20" fill="none" xmlns="http://www.w3.org/2000/svg">
<g clip-path="url(#clip0_1530_86)">
<path d="M19.9878 4.30917C19.9878 4.28632 20.0035 4.26408 20.0024 4.24149L13.8991 10.1224L19.9952 15.8154C19.9987 15.7747 19.9878 15.7337 19.9878 15.6922V4.30917Z" fill="#8D8D8D"/>
<path d="M12.9659 11.0266L10.4743 13.4237C10.3483 13.545 10.1854 13.6059 10.0225 13.6059C9.86297 13.6059 9.70344 13.5476 9.57823 13.4309L7.09345 11.1155L0.957642 17.0298C1.10684 17.0834 1.26698 17.125 1.43468 17.125H18.6104C18.8595 17.125 19.093 17.0491 19.2961 16.936L12.9659 11.0266Z" fill="#8D8D8D"/>
<path d="M10.0157 12.0571L19.3302 3.08453C19.1193 2.95914 18.8738 2.87503 18.6107 2.87503H1.43498C1.09236 2.87503 0.77842 3.00806 0.533905 3.21096L10.0157 12.0571Z" fill="#8D8D8D"/>
<path d="M0.0015564 4.52707V15.6913C0.0015564 15.8195 0.0310129 15.9431 0.0629892 16.0612L6.12268 10.2258L0.0015564 4.52707Z" fill="#8D8D8D"/>
</g>
<defs>
<clipPath id="clip0_1530_86">
<rect width="20" height="20" fill="white"/>
</clipPath>
</defs>
</svg>
