<svg width="30" height="30" fill="none" xmlns="http://www.w3.org/2000/svg"><path d="M15 16.215a6.9 6.9 0 0 0-6.893 6.892A6.9 6.9 0 0 0 15 29.999a6.9 6.9 0 0 0 6.892-6.892A6.9 6.9 0 0 0 15 16.215zm-3.424 5.63a.9.9 0 1 1 0-1.801.9.9 0 0 1 0 1.801zm2.522 1.442a.901.901 0 1 1 0-1.802.901.901 0 0 1 0 1.802zm0-2.883a.901.901 0 1 1 0-1.802.901.901 0 0 1 0 1.802zM23.919 2.432a2.03 2.03 0 0 0-1.894 2.75l-3.65 1.987-2.289-3.432a2.027 2.027 0 1 0-2.173 0l-2.288 3.432-3.65-1.987a2.03 2.03 0 0 0-1.893-2.75A2.03 2.03 0 0 0 4.053 4.46a2.03 2.03 0 0 0 2.585 1.949L7.66 11.13a3.382 3.382 0 0 0 3.287 2.653h8.105a3.382 3.382 0 0 0 3.287-2.653l1.022-4.723a2.03 2.03 0 0 0 2.585-1.948 2.03 2.03 0 0 0-2.027-2.028z" fill="#0094F4"/></svg>