<svg width="70" height="70" fill="none" xmlns="http://www.w3.org/2000/svg"><circle cx="35" cy="35" r="34.25" stroke="#fff" stroke-width="1.5"/><g clip-path="url(#a)" fill="#fff" stroke="#000"><path d="M24.388 45.332v.25H46.68a1.069 1.069 0 0 1 0 2.138H23.32c-.59 0-1.069-.478-1.069-1.069V23.35a1.069 1.069 0 1 1 2.138 0v21.983z" stroke-width=".5"/><path d="m32.48 34.948-.229-.101-.17.185-3.673 4.01a.966.966 0 0 1-1.369.06.969.969 0 0 1-.06-1.368l4.312-4.708a.969.969 0 0 1 1.104-.232l6.468 2.84.257.113.166-.226 3.48-4.732.493-.673-.826.119-2.5.359a.969.969 0 0 1-.275-1.918l-.05-.347.049.347 5.583-.801a.97.97 0 0 1 1.097.821l.8 5.584a.969.969 0 0 1-.82 1.096h-.001a.97.97 0 0 1-1.096-.822l-.339-2.36-.121-.847-.508.69-4.03 5.483a.969.969 0 0 1-1.17.313l-6.571-2.885z" stroke-width=".7"/></g><defs><clipPath id="a"><path fill="#fff" transform="translate(22 22)" d="M0 0h26v26H0z"/></clipPath></defs></svg>