<svg width="70" height="70" fill="none" xmlns="http://www.w3.org/2000/svg"><circle cx="35" cy="35" r="34.25" stroke="#fff" stroke-width="1.5"/><g clip-path="url(#a)" stroke="#fff"><path d="M23.213 35.664c.448.68 1.31 1.647 2.419 2.739a59.578 59.578 0 0 0 3.705 3.326c1.304 1.079 2.593 2.056 3.659 2.76.534.352.999.627 1.373.81.187.093.34.156.46.196.06.019.105.03.14.037.028.006.042.007.044.007a1.253 1.253 0 0 0 .192-.045c.121-.04.276-.103.463-.194.375-.183.84-.456 1.373-.808 1.063-.7 2.346-1.675 3.643-2.752 2.62-2.175 5.177-4.666 6.103-6.075.934-1.42 1.557-2.913 1.451-4.88-.186-3.482-3.032-6.324-6.464-6.324-1.613 0-2.986.901-4.088 1.917-.482.444-.889.888-1.234 1.265l-.135.146a8.69 8.69 0 0 1-.514.528 1.99 1.99 0 0 1-.279.215.998.998 0 0 1-.524.16.958.958 0 0 1-.538-.178 1.976 1.976 0 0 1-.257-.216c-.143-.14-.31-.33-.48-.522l-.045-.052c-.344-.391-.765-.87-1.278-1.349-1.08-1.005-2.472-1.914-4.176-1.914-3.432 0-6.278 2.843-6.464 6.324l1.45 4.88zm0 0c-.932-1.413-1.557-2.912-1.451-4.88l1.45 4.88z" stroke-width="1.5"/><path d="M22.217 34.391h7.305l.608 1.826 1.218-6.695 1.522 10.956 1.521-8.522L35 35.61l1.217-4.87 1.218 7.305 1.217-3.653.609 6.087 1.826-7.913.608 1.826h5.783" stroke-width=".7"/></g><defs><clipPath id="a"><path fill="#fff" transform="translate(21 21)" d="M0 0h28v28H0z"/></clipPath></defs></svg>