<svg width="70" height="70" fill="none" xmlns="http://www.w3.org/2000/svg"><circle cx="35" cy="35" r="34.25" stroke="#fff" stroke-width="1.5"/><g clip-path="url(#a)" fill="#fff"><path d="M45.649 36.666a.351.351 0 0 0-.351.35v1.054H24.702v-1.053a.351.351 0 0 0-.702 0v8.572c0 .194.157.351.351.351H45.65a.351.351 0 0 0 .351-.351v-8.572a.351.351 0 0 0-.351-.352zm-.351 2.808H27.16a.351.351 0 1 0 0 .702h18.138v5.062H24.702v-5.062h1.053a.351.351 0 0 0 0-.702h-1.053v-.702h20.596v.702z"/><path d="M32.86 37.288a.35.35 0 0 0 .493-.05l3.893-4.768a.351.351 0 0 0-.544-.444l-3.892 4.768c-.123.15-.1.371.05.494zM34.588 36.795a.351.351 0 1 0 .544.444l3.892-4.767v-.001a1.004 1.004 0 0 1 1.487-.076l.969.967a1.004 1.004 0 0 1-.076 1.488l-2.322 1.895a.351.351 0 0 0 .444.544l2.322-1.895a5.155 5.155 0 0 1 3.8-3.552.351.351 0 0 0 0-.703c-1.42 0-2.764.5-3.831 1.415l2.96-2.96a.351.351 0 1 0-.496-.497l-2.96 2.96a5.85 5.85 0 0 0 1.414-3.831.351.351 0 0 0-.702 0 5.155 5.155 0 0 1-1.307 3.444 1.708 1.708 0 0 0-2.245.357l-.044.053-3.849 4.715zM25.754 37.367a.351.351 0 0 0 .351-.35v-8.508h4.984v8.508a.351.351 0 0 0 .702 0V28.27l1.32-1.85.99 1.387h-.936a.351.351 0 0 0 0 .702h1.267v4.203a.351.351 0 0 0 .702 0v-4.554a.352.352 0 0 0-.065-.204l-1.607-2.251V24.41a.351.351 0 0 0-.35-.351h-5.686a.351.351 0 0 0-.351.351v1.292l-1.607 2.251a.352.352 0 0 0-.065.204v8.858c0 .194.157.352.35.352zm2.023-12.605h4.983v.702h-4.983v-.702zm-.17 1.404h4.823l-1.171 1.641h-4.823l1.17-1.64zM44.245 37.367a.351.351 0 0 0 .351-.35v-.584c0-.73-.461-1.392-1.148-1.646a.351.351 0 0 0-.244.658c.413.153.69.55.69.988v.584c0 .193.157.35.351.35z"/></g><defs><clipPath id="a"><path fill="#fff" transform="translate(24 24)" d="M0 0h22v22H0z"/></clipPath></defs></svg>