<svg width="27" height="27" fill="none" xmlns="http://www.w3.org/2000/svg"><circle cx="13.5" cy="13.502" r="13.5" fill="#0094F4"/><g clip-path="url(#a)"><path d="M6.17 13.502c0-4.04 3.289-7.328 7.33-7.328 1.632 0 3.176.525 4.467 1.518l-1.703 2.212a4.493 4.493 0 0 0-2.764-.939 4.542 4.542 0 0 0-4.537 4.537A4.542 4.542 0 0 0 13.5 18.04a4.545 4.545 0 0 0 4.317-3.141h-4.318v-2.792h7.329v1.396c0 4.041-3.288 7.329-7.329 7.329-4.04 0-7.328-3.288-7.328-7.329z" fill="#fff"/></g><defs><clipPath id="a"><path fill="#fff" transform="translate(6.17 6.174)" d="M0 0h14.657v14.657H0z"/></clipPath></defs></svg>