<svg width="70" height="70" fill="none" xmlns="http://www.w3.org/2000/svg"><circle cx="35" cy="35" r="34.25" stroke="#fff" stroke-width="1.5"/><g clip-path="url(#a)" fill="#fff"><path d="M27.661 31.388a.596.596 0 0 0-.595.596v11.394h-2.383V31.984a.596.596 0 1 0-1.192 0V43.9c0 .329.341.67.67.67h3.575c.33 0 .521-.341.521-.67V31.984a.596.596 0 0 0-.596-.596zM33.437 31.388a.596.596 0 0 0-.595.596v11.394h-2.383V31.984a.596.596 0 1 0-1.192 0V43.9c0 .329.341.67.67.67h3.575c.329 0 .521-.341.521-.67V31.984a.596.596 0 0 0-.596-.596zM39.99 31.388a.596.596 0 0 0-.595.596v11.394h-2.383V31.984a.596.596 0 1 0-1.192 0V43.9c0 .329.341.67.67.67h3.575c.33 0 .521-.341.521-.67V31.984a.596.596 0 0 0-.596-.596zM46.544 31.388a.596.596 0 0 0-.596.596v11.394h-2.383V31.984a.596.596 0 1 0-1.191 0V43.9c0 .329.34.67.67.67h3.574c.33 0 .521-.341.521-.67V31.984a.596.596 0 0 0-.595-.596zM48.646 29.057 35.242 23.1a.594.594 0 0 0-.484 0l-13.404 5.957c-.257.114-.4.43-.341.705.059.275.301.51.583.51h26.808c.282 0 .524-.235.583-.51.058-.275-.084-.591-.34-.705zm-24.243.023L35 24.37l10.597 4.71H24.403zM47.735 45.76H22.118v1.192h25.617v-1.191z"/></g><defs><clipPath id="a"><path fill="#fff" transform="translate(21 21)" d="M0 0h28v28H0z"/></clipPath></defs></svg>