<svg width="50" height="50" fill="none" xmlns="http://www.w3.org/2000/svg"><path d="M46.71 23.582c-1.249-6.089-5.01-11.279-10.147-14.434h4.94a4.354 4.354 0 0 0 4.029 2.718 4.353 4.353 0 0 0 4.348-4.348 4.353 4.353 0 0 0-4.348-4.348 4.354 4.354 0 0 0-4.03 2.718H29.468V3.05h-8.936v2.838H8.498a4.354 4.354 0 0 0-4.03-2.718A4.353 4.353 0 0 0 .12 7.518a4.353 4.353 0 0 0 4.348 4.348 4.354 4.354 0 0 0 4.03-2.717h4.939C8.3 12.303 4.539 17.493 3.29 23.582H0v8.936h8.936v-8.936H6.631c1.66-6.839 7.062-12.24 13.9-13.902v2.306h8.937V9.681c6.839 1.66 12.24 7.062 13.901 13.9h-2.305v8.937H50v-8.936h-3.29z" fill="#0094F4"/><path d="M26.63 19.051v8.85A3.402 3.402 0 0 1 25 34.29a3.402 3.402 0 0 1-1.63-6.39v-8.849l-10.214 13.84 3.45 6.386h16.789l3.45-6.386-10.214-13.84zM32.838 42.538H17.164L15.37 46.95h19.26l-1.793-4.412z" fill="#0094F4"/></svg>