<svg width="70" height="70" fill="none" xmlns="http://www.w3.org/2000/svg"><circle cx="35" cy="35" r="34.25" stroke="#fff" stroke-width="1.5"/><path d="M25.699 25.348a1.477 1.477 0 1 0 0-2.954 1.477 1.477 0 0 0 0 2.954zM40.027 25.348a1.477 1.477 0 1 0 0-2.953 1.477 1.477 0 0 0 0 2.953z" stroke="#fff" stroke-width="1.5" stroke-miterlimit="10"/><path d="M25.703 25.348v3.609a7.164 7.164 0 0 0 7.164 7.164 7.165 7.165 0 0 0 7.164-7.164v-3.61M32.863 36.121v8.887a2.598 2.598 0 0 0 3.593 2.401 2.598 2.598 0 0 0 1.606-2.401v-5.305a2.598 2.598 0 0 1 2.598-2.598 2.597 2.597 0 0 1 2.593 2.598v2.16" stroke="#fff" stroke-width="1.5" stroke-miterlimit="10"/><path d="M43.253 46.912a2.524 2.524 0 1 0 0-5.049 2.524 2.524 0 0 0 0 5.049z" stroke="#fff" stroke-width=".5" stroke-miterlimit="10"/><path d="M43.254 45.61a1.222 1.222 0 1 0 0-2.444 1.222 1.222 0 0 0 0 2.443z" stroke="#fff" stroke-width=".5" stroke-miterlimit="10"/></svg>