<svg xmlns="http://www.w3.org/2000/svg" viewBox="0 0 1600 1600" width="1280" height="1280"><path d="M334 720c1.66 0 3.32-.01 4.98-.01 4.53-.01 9.06 0 13.6 0 4.94.01 9.88 0 14.8 0 8.65-.01 17.3-.01 26 0 12.9 0 25.7 0 38.6-.01 23-.01 46-.01 68.9 0 20.1.01 40.2.01 60.3 0h135.79c11.6.01 23.1.01 34.7.01 45.8.01 91.7.01 138 0 11.6 0 23.1 0 34.7-.01H1040.06c20.8.01 41.5 0 62.3 0 22.8-.01 45.7-.01 68.6.01 12.8 0 25.6 0 38.4-.01 8.54 0 17.1 0 25.6.01 4.87.01 9.73.01 14.6 0 4.43-.01 8.87 0 13.3.01 1.59 0 3.18 0 4.76-.01 26-.08 47.7 4.3 67.8 22.3.63.54 1.27 1.08 1.92 1.64 8.94 8.14 15.2 20 19.1 31.4.48 1.38.48 1.38.96 2.79 5.87 20.5 2.74 42.7-7.33 61.2-11 19.1-27.6 32-48.8 37.9-9.38 2.19-18.3 2.57-27.9 2.52-1.68.01-3.37.01-5.05.02-4.62.01-9.24 0-13.8-.01-5.03 0-10.1.01-15.1.02-8.81.01-17.6.01-26.4 0-13.1-.01-26.2 0-39.3.01-24.1.02-48.2.03-72.2.02h-12.25c-15-.01-30 0-45.1 0H1038c-5.51 0-11 .01-16.5.01-38.5.01-77 .01-115 .01-1.09 0-1.09 0-2.2-.01H869.03c-46.7-.01-93.4-.01-140 .02-11.8 0-23.5.01-35.3.02h-2.2c-22.3.01-44.7.01-67 .01H555.59c-21.8 0-43.6 0-65.5.02-22.6.01-45.2.01-67.8-.01-13-.01-26 0-39.1.01-8.7.01-17.4.01-26.1-.01-4.95 0-9.91-.01-14.9.01-4.52.01-9.03.01-13.6-.01-1.61-.01-3.23 0-4.85.01-13.6.08-27-1.68-39.2-8.21l-2-1.03c-17.7-9.56-30.9-26-37.7-44.8-6.55-21.9-4.73-43.1 5.53-63.6 10.2-18.6 27-32.6 47.3-38.8 12.1-3.34 24.7-3.37 37.1-3.33zM334 320c1.66 0 3.32-.01 4.98-.01 4.53-.01 9.06 0 13.6 0 4.94.01 9.88 0 14.8 0 8.65-.01 17.3-.01 26 0 12.9 0 25.7 0 38.6-.01 23-.01 46-.01 68.9 0 20.1.01 40.2.01 60.3 0h135.79c11.6.01 23.1.01 34.7.01 45.8.01 91.7.01 138 0 11.6 0 23.1 0 34.7-.01H1040.06c20.8.01 41.5 0 62.3 0 22.8-.01 45.7-.01 68.6.01 12.8 0 25.6 0 38.4-.01 8.54 0 17.1 0 25.6.01 4.87.01 9.73.01 14.6 0 4.43-.01 8.87 0 13.3.01 1.59 0 3.18 0 4.76-.01 26-.08 47.7 4.3 67.8 22.3.63.54 1.27 1.08 1.92 1.64 8.94 8.14 15.2 20 19.1 31.4.48 1.38.48 1.38.96 2.79 5.87 20.5 2.74 42.7-7.33 61.2-11 19.1-27.6 32-48.8 37.9-9.38 2.19-18.3 2.57-27.9 2.52-1.68.01-3.37.01-5.05.02-4.62.01-9.24 0-13.8-.01-5.03 0-10.1.01-15.1.02-8.81.01-17.6.01-26.4 0-13.1-.01-26.2 0-39.3.01-24.1.02-48.2.03-72.2.02h-12.25c-15-.01-30 0-45.1 0H1038c-5.51 0-11 .01-16.5.01-38.5.01-77 .01-115 .01-1.09 0-1.09 0-2.2-.01H869.03c-46.7-.01-93.4-.01-140 .02-11.8 0-23.5.01-35.3.02h-2.2c-22.3.01-44.7.01-67 .01H555.59c-21.8 0-43.6 0-65.5.02-22.6.01-45.2.01-67.8-.01-13-.01-26 0-39.1.01-8.7.01-17.4.01-26.1-.01-4.95 0-9.91-.01-14.9.01-4.52.01-9.03.01-13.6-.01-1.61-.01-3.23 0-4.85.01-13.6.08-27-1.68-39.2-8.21l-2-1.03c-17.7-9.56-30.9-26-37.7-44.8-6.55-21.9-4.73-43.1 5.53-63.6 10.2-18.6 27-32.6 47.3-38.8 12.1-3.34 24.7-3.37 37.1-3.33zM817 1120c2 0 4 0 6-.01h16.4c5.9 0 11.8-.01 17.7-.01 11.6-.01 23.1-.01 34.7-.01 9.4 0 18.8-.01 28.2-.01h10.18c19-.01 37.9-.01 56.8-.01h19.5c22.6 0 45.2-.01 67.8-.02 25.4-.02 50.8-.03 76.2-.03 2.71 0 5.42 0 8.13.01h2.03c10.1 0 20.1-.01 30.2-.02 11.4-.01 22.9-.01 34.4 0 5.83 0 11.7 0 17.5-.01 5.35-.01 10.7 0 16 0 1.93.01 3.86 0 5.79 0 27.1-.08 49.5 3.44 70.6 22.2.63.54 1.27 1.08 1.92 1.64 8.94 8.14 15.2 20 19.1 31.4.32.93.64 1.85.96 2.8 5.87 20.5 2.74 42.7-7.33 61.2-11 19.1-27.5 31.8-48.6 37.9-10.6 2.54-20.8 2.56-31.6 2.52-2.08.01-4.15.01-6.22.02-5.66.01-11.3.01-17 0-6.12 0-12.2.01-18.4.02-11.3.01-22.6.02-33.8.01h-31.3c-1.4 0-2.8.01-4.2.01h-6.34c-19.6.01-39.2.02-58.8.01h-2.24c-6-.01-12-.01-18-.01-23.4-.01-46.8 0-70.2.02-26.3.03-52.6.04-78.9.03h-10.52c-10.4 0-20.8.01-31.2.02-11.8.01-23.7.01-35.6 0-6.04-.01-12.1-.01-18.1 0-5.54.01-11.1.01-16.6-.01-2 0-4 0-5.99.01-14.8.07-29-1.08-42.3-8.2-.66-.35-1.32-.69-2-1.04-18.1-9.77-31.9-26.5-38-46.1-6.3-21.5-4.23-42.8 6.16-62.8 10.7-18.8 26.7-31.8 47.2-38.4.71-.23 1.43-.46 2.17-.7 12-3.44 25.2-2.44 37.6-2.43z" fill="#fff"/></svg>