<svg width="70" height="70" fill="none" xmlns="http://www.w3.org/2000/svg"><circle cx="35" cy="35" r="34.25" stroke="#fff" stroke-width="1.5"/><path fill-rule="evenodd" clip-rule="evenodd" d="M47.25 42.583H21.583A.583.583 0 0 1 21 42V25.666c0-.322.26-.583.583-.583H47.25c.323 0 .583.261.583.583V42c0 .322-.26.583-.583.583zm-.583-16.333h-24.5v15.166h24.5V26.25zm-14 4.083c.124 0 .233.048.328.114l4.533 2.842c.225.08.389.29.389.544 0 .19-.097.35-.237.457l-4.651 2.905a.573.573 0 0 1-.362.138.583.583 0 0 1-.584-.583v-5.834c0-.322.261-.583.584-.583zm-3.5 13.417h10.5a.583.583 0 1 1 0 1.166h-10.5a.583.583 0 1 1 0-1.166z" fill="#fff"/></svg>