<svg width="142" height="41" viewBox="0 0 142 41" fill="none" xmlns="http://www.w3.org/2000/svg">
<g clip-path="url(#clip0_1530_92)">
<path d="M0.42848 30.4304C0.717322 30.972 1.14198 31.435 1.67184 31.7587L15.7467 40.3643C17.1335 41.2119 18.8646 41.2119 20.2514 40.3643L34.3262 31.7587C34.6686 31.5488 34.9651 31.282 35.2119 30.9739L35.3381 30.8052C35.7609 30.2068 36 29.4729 36 28.7038V12.3168C36 11.738 35.8642 11.1807 35.6174 10.6843L35.518 10.498C35.231 9.99567 34.8274 9.56794 34.3282 9.26186L20.2533 0.638648C18.8646 -0.212883 17.1296 -0.212883 15.7409 0.638648L1.66993 9.26186C0.635069 9.8956 0 11.0591 0 12.3148V28.7019C0 29.2434 0.118597 29.7673 0.336663 30.2401L0.42848 30.4304Z" fill="#0094F4"/>
<path d="M10.2907 30.4134C9.76217 30.4134 9.33331 29.9633 9.33331 29.4086V11.5854C9.33331 11.0307 9.76217 10.5806 10.2907 10.5806H13.2569C13.9811 10.5806 14.5698 11.1965 14.5698 11.9585V17.1916L11.692 20.7388L11.6299 20.6875C11.5509 20.6224 11.4456 20.6086 11.3553 20.65L10.4318 21.0705C10.3641 21.1021 10.317 21.1672 10.3076 21.2442L10.1816 22.2687C10.1722 22.3457 10.2023 22.4227 10.2606 22.47L11.0525 23.1215C11.1315 23.1866 11.2368 23.2004 11.3271 23.159L12.2506 22.7385C12.3184 22.7069 12.3654 22.6418 12.3748 22.5648L12.5008 21.5423C12.5102 21.4633 12.4801 21.3863 12.4218 21.3389L12.3785 21.3034L14.5698 18.601V18.6267L20.7092 11.0643C20.9594 10.7563 21.3243 10.5806 21.708 10.5806H25.1595C25.9852 10.5806 26.4235 11.6032 25.878 12.2506L20.1299 19.0807L20.1318 19.0846L19.1461 20.2532L19.0841 20.1999C19.007 20.1348 18.9016 20.117 18.8095 20.1565L17.8803 20.5572C17.8107 20.5868 17.7618 20.654 17.7505 20.7329L17.6057 21.7515C17.5944 21.8305 17.6245 21.9074 17.6828 21.9588L18.4596 22.626C18.5367 22.6911 18.6421 22.7089 18.7323 22.6694L19.6615 22.2687C19.7311 22.2391 19.78 22.172 19.7913 22.095L19.9361 21.0764C19.9474 20.9974 19.9192 20.9204 19.8609 20.8711L19.8176 20.8336L20.6358 19.8644L26.4968 28.8441C26.9332 29.5113 26.478 30.4174 25.7068 30.4174H20.6885C20.2559 30.4174 19.8515 30.1943 19.607 29.8192L16.2401 24.6691L16.2984 24.6237C16.3718 24.5664 16.4075 24.4736 16.3943 24.3789L16.2608 23.4294C16.2514 23.3583 16.2062 23.2971 16.1423 23.2715L15.3166 22.9122C15.2545 22.8846 15.183 22.8944 15.1285 22.9379L14.3949 23.5123C14.3234 23.5696 14.2858 23.6623 14.299 23.7571L14.4325 24.7066C14.4419 24.7776 14.4871 24.8388 14.551 24.8665L15.3768 25.2238C15.4407 25.2514 15.5122 25.2415 15.5667 25.2001L15.6062 25.1685L16.4131 26.4022L15.4181 29.4837C15.2376 30.0423 14.7372 30.4193 14.1748 30.4193H10.2907V30.4134Z" fill="white"/>
</g>
<path d="M42.74 27V12.9H44.38V19.3H44.42L51.26 12.9H53.36L46 19.76L53.8 27H51.64L44.42 20.36H44.38V27H42.74ZM59.1852 27.18C57.6518 27.18 56.4385 26.7333 55.5452 25.84C54.6518 24.9333 54.2052 23.7067 54.2052 22.16C54.2052 21.16 54.4052 20.28 54.8052 19.52C55.2052 18.7467 55.7518 18.1533 56.4452 17.74C57.1518 17.3133 57.9652 17.1 58.8852 17.1C60.2052 17.1 61.2385 17.5267 61.9852 18.38C62.7318 19.22 63.1052 20.38 63.1052 21.86V22.48H55.7852C55.8385 23.5867 56.1585 24.4333 56.7452 25.02C57.3318 25.5933 58.1452 25.88 59.1852 25.88C59.7718 25.88 60.3318 25.7933 60.8652 25.62C61.3985 25.4333 61.9052 25.1333 62.3852 24.72L62.9452 25.86C62.5052 26.2733 61.9452 26.6 61.2652 26.84C60.5852 27.0667 59.8918 27.18 59.1852 27.18ZM58.9252 18.3C58.0052 18.3 57.2785 18.5867 56.7452 19.16C56.2118 19.7333 55.8985 20.4867 55.8052 21.42H61.7052C61.6652 20.4333 61.4052 19.6667 60.9252 19.12C60.4585 18.5733 59.7918 18.3 58.9252 18.3ZM65.4497 27V17.28H67.0297V19.02C67.5497 17.8467 68.6164 17.2 70.2297 17.08L70.8097 17.02L70.9297 18.42L69.9097 18.54C68.9897 18.62 68.2897 18.9133 67.8097 19.42C67.3297 19.9133 67.0897 20.5933 67.0897 21.46V27H65.4497ZM72.6177 27V17.28H74.1977V18.94C74.5177 18.3267 74.971 17.8667 75.5577 17.56C76.1443 17.2533 76.8043 17.1 77.5377 17.1C79.8443 17.1 80.9977 18.38 80.9977 20.94V27H79.3777V21.04C79.3777 20.1333 79.1977 19.4733 78.8377 19.06C78.491 18.6333 77.931 18.42 77.1577 18.42C76.2643 18.42 75.551 18.7 75.0177 19.26C74.4977 19.8067 74.2377 20.54 74.2377 21.46V27H72.6177ZM88.3648 27.18C86.8315 27.18 85.6182 26.7333 84.7248 25.84C83.8315 24.9333 83.3848 23.7067 83.3848 22.16C83.3848 21.16 83.5848 20.28 83.9848 19.52C84.3848 18.7467 84.9315 18.1533 85.6248 17.74C86.3315 17.3133 87.1448 17.1 88.0648 17.1C89.3848 17.1 90.4182 17.5267 91.1648 18.38C91.9115 19.22 92.2848 20.38 92.2848 21.86V22.48H84.9648C85.0182 23.5867 85.3382 24.4333 85.9248 25.02C86.5115 25.5933 87.3248 25.88 88.3648 25.88C88.9515 25.88 89.5115 25.7933 90.0448 25.62C90.5782 25.4333 91.0848 25.1333 91.5648 24.72L92.1248 25.86C91.6848 26.2733 91.1248 26.6 90.4448 26.84C89.7648 27.0667 89.0715 27.18 88.3648 27.18ZM88.1048 18.3C87.1848 18.3 86.4582 18.5867 85.9248 19.16C85.3915 19.7333 85.0782 20.4867 84.9848 21.42H90.8848C90.8448 20.4333 90.5848 19.6667 90.1048 19.12C89.6382 18.5733 88.9715 18.3 88.1048 18.3ZM97.6094 27.18C96.6227 27.18 95.876 26.8933 95.3694 26.32C94.876 25.7333 94.6294 24.8867 94.6294 23.78V12.9H96.2494V23.66C96.2494 25.0867 96.816 25.8 97.9494 25.8C98.2827 25.8 98.5827 25.76 98.8494 25.68L98.8094 27.04C98.396 27.1333 97.996 27.18 97.6094 27.18ZM103.967 27V15.04H99.1273V12.9H111.367V15.04H106.527V27H103.967ZM116.007 27.2C114.9 27.2 113.947 26.9933 113.147 26.58C112.347 26.1667 111.727 25.58 111.287 24.82C110.86 24.06 110.647 23.16 110.647 22.12C110.647 21.1067 110.853 20.22 111.267 19.46C111.693 18.7 112.273 18.1067 113.007 17.68C113.753 17.24 114.6 17.02 115.547 17.02C116.933 17.02 118.027 17.46 118.827 18.34C119.64 19.22 120.047 20.42 120.047 21.94V22.68H113.047C113.233 24.4267 114.233 25.3 116.047 25.3C116.593 25.3 117.14 25.22 117.687 25.06C118.233 24.8867 118.733 24.62 119.187 24.26L119.887 25.94C119.42 26.3267 118.833 26.6333 118.127 26.86C117.42 27.0867 116.713 27.2 116.007 27.2ZM115.647 18.72C114.913 18.72 114.32 18.9467 113.867 19.4C113.413 19.8533 113.14 20.4667 113.047 21.24H117.967C117.913 20.4267 117.687 19.8067 117.287 19.38C116.9 18.94 116.353 18.72 115.647 18.72ZM126.547 27.2C125.52 27.2 124.627 26.9933 123.867 26.58C123.107 26.1533 122.52 25.5533 122.107 24.78C121.693 24.0067 121.487 23.1 121.487 22.06C121.487 21.02 121.693 20.1267 122.107 19.38C122.52 18.62 123.107 18.04 123.867 17.64C124.627 17.2267 125.52 17.02 126.547 17.02C127.173 17.02 127.793 17.12 128.407 17.32C129.02 17.52 129.527 17.8 129.927 18.16L129.187 19.9C128.84 19.5933 128.447 19.36 128.007 19.2C127.58 19.04 127.167 18.96 126.767 18.96C125.9 18.96 125.227 19.2333 124.747 19.78C124.28 20.3133 124.047 21.08 124.047 22.08C124.047 23.0667 124.28 23.8467 124.747 24.42C125.227 24.98 125.9 25.26 126.767 25.26C127.153 25.26 127.567 25.18 128.007 25.02C128.447 24.86 128.84 24.62 129.187 24.3L129.927 26.06C129.527 26.4067 129.013 26.6867 128.387 26.9C127.773 27.1 127.16 27.2 126.547 27.2ZM131.46 27V12.9H133.96V18.64C134.293 18.1067 134.74 17.7067 135.3 17.44C135.86 17.16 136.48 17.02 137.16 17.02C139.467 17.02 140.62 18.36 140.62 21.04V27H138.12V21.16C138.12 20.4 137.973 19.8467 137.68 19.5C137.4 19.1533 136.96 18.98 136.36 18.98C135.627 18.98 135.04 19.2133 134.6 19.68C134.173 20.1333 133.96 20.74 133.96 21.5V27H131.46Z" fill="#2E2E2E"/>
<defs>
<clipPath id="clip0_1530_92">
<rect width="36" height="41" fill="white"/>
</clipPath>
</defs>
</svg>
