<svg width="27" height="27" fill="none" xmlns="http://www.w3.org/2000/svg"><circle cx="13.5" cy="13.502" r="13.5" fill="#0094F4"/><g clip-path="url(#a)" fill="#fff"><path d="M9.582 10.888H6.64a.236.236 0 0 0-.237.237v9.453c0 .13.106.236.237.236h2.942c.13 0 .237-.106.237-.236v-9.453a.236.236 0 0 0-.237-.237zM8.113 6.19c-1.071 0-1.942.87-1.942 1.939 0 1.07.87 1.94 1.942 1.94 1.07 0 1.94-.87 1.94-1.94 0-1.07-.87-1.94-1.94-1.94zM17.067 10.654c-1.181 0-2.055.508-2.585 1.085v-.614a.236.236 0 0 0-.236-.236h-2.818a.236.236 0 0 0-.237.236v9.453c0 .13.106.237.237.237h2.936c.13 0 .236-.106.236-.237v-4.677c0-1.576.428-2.19 1.527-2.19 1.196 0 1.292.984 1.292 2.271v4.596c0 .13.105.237.236.237h2.937c.13 0 .236-.106.236-.237v-5.185c0-2.343-.446-4.739-3.76-4.739z"/></g><defs><clipPath id="a"><path fill="#fff" transform="translate(6.17 6.174)" d="M0 0h14.657v14.657H0z"/></clipPath></defs></svg>