<svg width="71" height="70" fill="none" xmlns="http://www.w3.org/2000/svg"><path d="M70.25 35c0 18.906-15.548 34.25-34.75 34.25C16.298 69.25.75 53.906.75 35S16.298.75 35.5.75C54.702.75 70.25 16.094 70.25 35z" stroke="#fff" stroke-width="1.5"/><g clip-path="url(#a)"><path d="M43.222 29.278h-3.637v-6.79H21.3v21.21h1.907c.063 2.09 1.827 3.814 3.93 3.814 2.102 0 3.866-1.723 3.929-3.814h8.881c.063 2.09 1.827 3.814 3.93 3.814 2.102 0 3.866-1.723 3.93-3.814H49.3v-8.279l-6.078-6.14zm-16.085 17.04c-1.488 0-2.74-1.253-2.74-2.741 0-1.488 1.252-2.74 2.74-2.74 1.487 0 2.74 1.252 2.74 2.74 0 1.488-1.253 2.74-2.74 2.74zm11.26-3.81h-7.48c-.477-1.637-2.005-2.86-3.78-2.86-1.776 0-3.304 1.223-3.78 2.86h-.868v-18.83h15.907v18.83zm5.187-11.19 3.763 3.803h-3.763v-3.803zm.293 15c-1.488 0-2.74-1.253-2.74-2.741 0-1.488 1.252-2.74 2.74-2.74 1.488 0 2.74 1.252 2.74 2.74 0 1.488-1.247 2.74-2.74 2.74zm4.234-3.81h-.454c-.477-1.637-2.005-2.86-3.78-2.86s-3.303 1.223-3.78 2.86h-.454V30.473h2.74v5.837h5.728v6.198z" fill="#fff"/></g><defs><clipPath id="a"><path fill="#fff" transform="translate(21.3 21)" d="M0 0h28v28H0z"/></clipPath></defs></svg>