<svg width="70" height="70" viewBox="0 0 70 70" fill="none" xmlns="http://www.w3.org/2000/svg">
<circle cx="35" cy="35" r="34.25" stroke="white" stroke-width="1.5"/>
<path fill-rule="evenodd" clip-rule="evenodd" d="M47.25 42.583H21.5833C21.2607 42.583 21 42.3223 21 41.9997V25.6663C21 25.3443 21.2607 25.083 21.5833 25.083H47.25C47.5726 25.083 47.8333 25.3443 47.8333 25.6663V41.9997C47.8333 42.3223 47.5726 42.583 47.25 42.583ZM46.6667 26.2497H22.1667V41.4163H46.6667V26.2497ZM32.6667 30.333C32.7915 30.333 32.9 30.3808 32.9951 30.4473L37.5282 33.2893C37.7533 33.3693 37.9167 33.5798 37.9167 33.833C37.9167 34.0226 37.8204 34.1836 37.6804 34.2898L33.0289 37.1953C32.9286 37.277 32.8055 37.333 32.6667 37.333C32.3441 37.333 32.0833 37.0723 32.0833 36.7497V30.9163C32.0833 30.5943 32.3441 30.333 32.6667 30.333ZM29.1667 43.7497H39.6667C39.9892 43.7497 40.25 44.0104 40.25 44.333C40.25 44.6556 39.9892 44.9163 39.6667 44.9163H29.1667C28.8441 44.9163 28.5833 44.6556 28.5833 44.333C28.5833 44.0104 28.8441 43.7497 29.1667 43.7497Z" fill="white"/>
</svg>
