<?xml version="1.0" encoding="UTF-8"?>
<!DOCTYPE svg PUBLIC "-//W3C//DTD SVG 1.1//EN" "http://www.w3.org/Graphics/SVG/1.1/DTD/svg11.dtd">
<svg xmlns="http://www.w3.org/2000/svg" version="1.1" width="512px" height="512px" style="shape-rendering:geometricPrecision; text-rendering:geometricPrecision; image-rendering:optimizeQuality; fill-rule:evenodd; clip-rule:evenodd" xmlns:xlink="http://www.w3.org/1999/xlink">
<g><path style="opacity:0.961" fill="#000000" d="M 188.5,110.5 C 192.131,110.16 195.464,110.994 198.5,113C 243.333,157.833 288.167,202.667 333,247.5C 335,251.5 335,255.5 333,259.5C 287.833,304.667 242.667,349.833 197.5,395C 192.837,397.262 188.504,396.762 184.5,393.5C 179.875,389.376 175.375,385.043 171,380.5C 167.403,376.589 166.737,372.256 169,367.5C 206.319,329.347 243.819,291.347 281.5,253.5C 244.514,216.014 207.347,178.68 170,141.5C 167.247,137.667 166.914,133.667 169,129.5C 175.395,122.937 181.895,116.603 188.5,110.5 Z"/></g>
</svg>
