<svg width="70" height="70" fill="none" xmlns="http://www.w3.org/2000/svg"><circle cx="35" cy="35" r="34.25" stroke="#fff" stroke-width="1.5"/><g clip-path="url(#a)" fill="#fff" stroke="#000" stroke-width=".3"><path d="M35.688 33.087h.15v-4.424H30.037V33.088h5.65zm.687-5.5c.297 0 .538.241.538.538v5.5c0 .297-.241.538-.538.538H29.5a.537.537 0 0 1-.538-.538v-5.5c0-.297.241-.538.538-.538h6.875z"/><path d="M44.882 29.009c.176.088.28.27.28.48v10.313a1.915 1.915 0 0 1-1.912 1.913 1.915 1.915 0 0 1-1.913-1.913v-5.5c0-.97-.739-1.772-1.467-2.074l-.207-.086V42.22l.082.042.995.497a.537.537 0 0 1 .297.48v2.063c0 .31-.22.548-.504.548H25.408c-.303 0-.57-.257-.57-.548V43.24c0-.204.114-.39.297-.48l.995-.498.082-.042V26.74c0-1.43 1.197-2.59 2.633-2.59h8.25a2.567 2.567 0 0 1 2.568 2.59v4.314l.116.027c1.318.306 2.633 1.642 2.633 3.221v5.5a.838.838 0 0 0 1.675 0V31.326l-.092-.039c-.645-.267-1.267-.976-1.267-1.797 0-.042.015-.081.04-.147l.015-.039.047-.126-.12-.06-1.045-.522a.538.538 0 0 1-.242-.721.532.532 0 0 1 .717-.241l2.742 1.375zm-5.07 15.766h.15V43.572l-.082-.041-.995-.498a.538.538 0 0 1-.297-.48V26.74c0-.838-.648-1.515-1.493-1.515h-8.25c-.835 0-1.557.668-1.557 1.515v15.812c0 .204-.116.39-.298.481l-.995.498-.082.041V44.775h13.9z"/></g><defs><clipPath id="a"><path fill="#fff" transform="translate(24 24)" d="M0 0h22v22H0z"/></clipPath></defs></svg>