<?xml version="1.0" encoding="UTF-8"?>
<!DOCTYPE svg PUBLIC "-//W3C//DTD SVG 1.1//EN" "http://www.w3.org/Graphics/SVG/1.1/DTD/svg11.dtd">
<svg xmlns="http://www.w3.org/2000/svg" version="1.1" width="512px" height="512px" style="shape-rendering:geometricPrecision; text-rendering:geometricPrecision; image-rendering:optimizeQuality; fill-rule:evenodd; clip-rule:evenodd" xmlns:xlink="http://www.w3.org/1999/xlink">
<g><path style="opacity:0.96" fill="#000000" d="M 298.5,106.5 C 301.978,106.184 305.312,106.684 308.5,108C 314,113.5 319.5,119 325,124.5C 327,128.5 327,132.5 325,136.5C 287.32,174.014 249.82,211.68 212.5,249.5C 249.82,287.32 287.32,324.986 325,362.5C 327,366.167 327,369.833 325,373.5C 319.167,379.333 313.333,385.167 307.5,391C 302.744,393.263 298.411,392.597 294.5,389C 250.333,344.833 206.167,300.667 162,256.5C 159.212,252.33 158.879,247.997 161,243.5C 206.728,197.605 252.562,151.938 298.5,106.5 Z"/></g>
</svg>
