<svg width="25" height="25" fill="none" xmlns="http://www.w3.org/2000/svg"><g clip-path="url(#a)" fill="#0094F4"><path d="M12.402 24.17c6.446 0 11.67-5.225 11.67-11.67S18.848.83 12.402.83C5.957.83.732 6.055.732 12.5s5.225 11.67 11.67 11.67zm0-21.045a9.375 9.375 0 0 1 9.375 9.375 9.375 9.375 0 0 1-9.375 9.375A9.375 9.375 0 0 1 3.027 12.5a9.375 9.375 0 0 1 9.375-9.375z"/><path d="m17.895 9.203-.83-.829-6.812 6.813-2.515-2.516-.829.83 3.344 3.343 7.642-7.64z"/><path d="M24.61 12.5A12.11 12.11 0 1 1 2.521 5.638a.39.39 0 1 1 .643.443 11.329 11.329 0 1 0 3.033-2.996l.618.736-2.685.476.93-2.563.631.75A12.11 12.11 0 0 1 24.61 12.5z"/><path d="M12.5 22.266c5.385 0 9.766-4.381 9.766-9.766S17.885 2.734 12.5 2.734 2.734 7.115 2.734 12.5s4.381 9.766 9.766 9.766zm0-18.75c4.954 0 8.984 4.03 8.984 8.984s-4.03 8.984-8.984 8.984-8.984-4.03-8.984-8.984 4.03-8.984 8.984-8.984z"/><path d="M12.5 5.078a.39.39 0 0 0 .39-.39v-.391a.39.39 0 1 0-.78 0v.39a.39.39 0 0 0 .39.391zM12.5 19.922a.39.39 0 0 0-.39.39v.391a.39.39 0 1 0 .78 0v-.39a.39.39 0 0 0-.39-.391zM20.313 12.89h.39a.39.39 0 1 0 0-.78h-.39a.39.39 0 1 0 0 .78zM4.297 12.89h.39a.39.39 0 1 0 0-.78h-.39a.39.39 0 1 0 0 .78zM18.024 7.366a.39.39 0 0 0 .276-.114l.277-.276a.392.392 0 0 0-.426-.64.391.391 0 0 0-.127.087l-.276.277a.39.39 0 0 0 .276.666zM6.7 18.691a.39.39 0 0 0 .275-.114l.277-.277a.39.39 0 0 0-.426-.637.391.391 0 0 0-.127.085l-.276.276a.39.39 0 0 0 .276.667zM18.3 17.748a.392.392 0 0 0-.552.552l.276.277a.391.391 0 0 0 .553-.553l-.277-.276zM6.7 7.252a.39.39 0 1 0 .552-.552l-.277-.276a.39.39 0 1 0-.552.552l.276.276zM6.73 13.777l3.345 3.344a.391.391 0 0 0 .552 0l7.641-7.641a.393.393 0 0 0 0-.553L17.44 8.1a.39.39 0 0 0-.552 0l-6.536 6.536-2.24-2.24a.393.393 0 0 0-.552 0l-.828.83a.392.392 0 0 0 0 .552zm1.106-.553 2.239 2.24a.39.39 0 0 0 .552 0l6.536-6.537.276.276-7.088 7.089L7.559 13.5l.277-.276z"/></g><defs><clipPath id="a"><path fill="#fff" d="M0 0h25v25H0z"/></clipPath></defs></svg>