<svg width="25" height="20" viewBox="0 0 25 20" fill="none" xmlns="http://www.w3.org/2000/svg">
<path d="M0.78 19.13V12.76C0.78 10.38 1.2 8.18667 2.04 6.18C2.88 4.17333 4.30333 2.14333 6.31 0.0899959L9.95 2.96C8.78333 4.12666 7.89667 5.22333 7.29 6.25C6.68333 7.27666 6.28667 8.32666 6.1 9.4H10.58V19.13H0.78ZM14.43 19.13V12.76C14.43 10.38 14.85 8.18667 15.69 6.18C16.53 4.17333 17.9533 2.14333 19.96 0.0899959L23.6 2.96C22.4333 4.12666 21.5467 5.22333 20.94 6.25C20.3333 7.27666 19.9367 8.32666 19.75 9.4H24.23V19.13H14.43Z" fill="#0094F4"/>
</svg>
