<svg width="50" height="50" fill="none" xmlns="http://www.w3.org/2000/svg"><g clip-path="url(#a)" fill="#0094F4"><path d="M33.475 32.203c-.937 0-1.695.759-1.695 1.695v-1.695a1.694 1.694 0 1 0-3.39 0v-2.542a1.694 1.694 0 1 0-3.39 0v-10.17a1.694 1.694 0 1 0-3.39 0v21.187a2.03 2.03 0 0 1-1.998-1.668l-1.391-7.654h-1.543c-1.02 0-1.847.827-1.847 1.848v.54c0 .103.008.204.025.304l1.525 9.148c.095.571.334 1.108.696 1.56l2.096 2.62c.48.602.742 1.349.742 2.118V50H31.78v-.506c0-.77.262-1.517.743-2.118l1.904-2.38c.48-.6.743-1.348.743-2.117v-8.98c0-.937-.759-1.696-1.695-1.696zM13.136 9.322a3.39 3.39 0 1 1-6.78 0 3.39 3.39 0 0 1 6.78 0zM48.2 10.858l-2.933-1.772c-.433.463-.992.799-1.623.963v3.452a6.777 6.777 0 0 0 4.556-2.643zM48.2 2.702A6.777 6.777 0 0 0 43.644.058V3.51c.632.165 1.19.5 1.623.964L48.2 2.702zM46.186 6.78c0 .282-.045.552-.11.814l2.975 1.798a6.739 6.739 0 0 0 .525-2.612c0-.925-.188-1.808-.525-2.612l-2.975 1.798c.065.261.11.532.11.814zM41.949 3.51V.058a6.774 6.774 0 0 0-4.556 2.643l2.933 1.772a3.385 3.385 0 0 1 1.623-.963zM37.393 10.858a6.774 6.774 0 0 0 4.556 2.643v-3.452a3.385 3.385 0 0 1-1.623-.963l-2.933 1.772z"/><path d="M47.033 25.424c-1.103 0-2.035.71-2.386 1.695h-1.85v-6.78H41.1v6.78h-1.695v-3.39h-1.695v3.39h-1.695v-5.085h-1.694v5.085h-.461l-5.189-5.973a5.889 5.889 0 0 0-1.531-7.022l5.052-6.497h3.883c.078.617.233 1.21.465 1.765l2.975-1.798a3.37 3.37 0 0 1-.11-.814c0-.283.045-.553.11-.815l-2.975-1.797a6.763 6.763 0 0 0-.465 1.764h-4.711l-5.667 7.287a5.914 5.914 0 0 0-2.29-.502l-2.122-4.242h-2.219v-.848l-2.082-.694a7.546 7.546 0 0 0-.433-1.038l.983-1.966-2.397-2.397-1.966.983a7.641 7.641 0 0 0-1.038-.433L11.44 0H8.05l-.694 2.082a7.54 7.54 0 0 0-1.038.433l-1.966-.983L1.956 3.93l.982 1.966a7.642 7.642 0 0 0-.433 1.038l-2.082.694v3.39l2.082.694c.12.36.265.705.433 1.038l-.982 1.966 2.396 2.397 1.966-.983c.333.168.679.314 1.038.433l.694 2.082h3.39l.694-2.082c.36-.119.705-.265 1.038-.433l1.966.983 2.397-2.397-.983-1.966c.168-.333.314-.679.433-1.038l2.082-.694v-.848h1.171l1.394 2.786a5.932 5.932 0 0 0-4.26 5.69c0 1.358.465 2.601 1.234 3.6l-2.929 4.232v-4.443h-1.694v5.085h-1.695v-6.78h-1.695v6.78H8.898v-3.39H7.203v3.39H5.352a2.539 2.539 0 0 0-2.386-1.695 2.546 2.546 0 0 0-2.543 2.542 2.546 2.546 0 0 0 2.543 2.543c1.103 0 2.035-.711 2.386-1.695h10.77l3.715-5.367c.027.02.05.042.078.062V19.49a3.39 3.39 0 0 1 6.78 0v4.018c.37-.259.707-.56 1.009-.894l5.384 6.199h11.559a2.539 2.539 0 0 0 2.386 1.695 2.546 2.546 0 0 0 2.543-2.543 2.546 2.546 0 0 0-2.543-2.542zM9.745 14.407a5.09 5.09 0 0 1-5.084-5.085 5.09 5.09 0 0 1 5.084-5.085 5.09 5.09 0 0 1 5.085 5.085 5.09 5.09 0 0 1-5.085 5.085zm-6.78 14.407a.85.85 0 0 1-.847-.848c0-.467.38-.847.848-.847.466 0 .847.38.847.847a.85.85 0 0 1-.847.848zm44.068 0a.85.85 0 0 1-.847-.848c0-.467.38-.847.847-.847.467 0 .848.38.848.847a.85.85 0 0 1-.848.848z"/></g><defs><clipPath id="a"><path fill="#fff" d="M0 0h50v50H0z"/></clipPath></defs></svg>