<svg width="30" height="30" fill="none" xmlns="http://www.w3.org/2000/svg"><g clip-path="url(#a)" fill="#0094F4"><path d="m9.932 26.047-1.327 3.956h12.792l-1.327-3.956H9.932zM.001 17.14c0 2.477 2.022 4.484 4.516 4.484 2.495 0 4.517-2.007 4.517-4.483H0zM20.968 17.14c0 2.477 2.022 4.484 4.516 4.484 2.495 0 4.517-2.007 4.517-4.483h-9.033z"/><path d="m4.517 9.79 2.276 5.375h2.148L6.01 8.242h8.001v15.824h1.978V8.242h8.002l-2.93 6.923h2.147l2.276-5.375 2.275 5.375h2.148L26.14 6.264H15.99V3.69A1.977 1.977 0 0 0 15.001 0a1.978 1.978 0 0 0-.989 3.69v2.574H3.862l-3.768 8.9h2.148L4.517 9.79z"/></g><defs><clipPath id="a"><path fill="#fff" d="M0 0h30v30H0z"/></clipPath></defs></svg>