<svg width="70" height="70" fill="none" xmlns="http://www.w3.org/2000/svg"><circle cx="35" cy="35" r="34.25" stroke="#fff" stroke-width="1.5"/><g clip-path="url(#a)" fill="#fff"><mask id="b"><path d="m47.693 25.129.015-.015c.9-.902.93-2.339.065-3.204a2.164 2.164 0 0 0-1.543-.632 2.34 2.34 0 0 0-1.662.696l-1.978 2.114-7.073-2.118-1.466 1.467a.97.97 0 0 0-.287.69c0 .262.102.507.287.691l.064.065 5.11 2.812-.748.81a10.254 10.254 0 0 0-6.692-1.576l-.036-.04-.054.05c-4.246.503-7.741 3.596-8.714 7.866a10.137 10.137 0 0 0 1.31 7.7 10.137 10.137 0 0 0 6.373 4.516c.748.17 1.514.257 2.275.257 4.788 0 8.876-3.265 9.94-7.939.19-.834.275-1.675.257-2.509a1.15 1.15 0 0 0-.043-.7 10.151 10.151 0 0 0-1.855-4.98l.759-.7 2.834 5.15.065.064c.185.184.43.286.69.286a.97.97 0 0 0 .69-.286l1.467-1.466-2.131-7.122 2.08-1.947zM27.83 44.397a8.9 8.9 0 0 1-2.453-2.575 8.854 8.854 0 0 1-1.265-6.097c.571.154 1.148.382 1.37.54l-.027.178c-.086.556-.215 1.396.47 1.895.598.435 1.147.028 1.397-.183.1.081.21.162.322.245.176.13.486.358.597.497a7.173 7.173 0 0 1-.138.41c-.199.555-.405 1.128-.022 1.532.132.162.527.908.628 1.177-.003.09.004.191.012.324.01.137.03.445.009.57 0 0-.777.979-.733 1.21l-.168.277zm13.8-5.343a8.873 8.873 0 0 1-8.691 6.942 8.974 8.974 0 0 1-4.259-1.078c.626-.528 1.167-1.378 1.175-1.392.19-.32.18-.745.145-1.269-.005-.087-.012-.162-.01-.21-.001.03-.007.053-.01.07.102-.454-.516-1.501-.814-1.947.031-.118.097-.3.143-.431.078-.217.158-.44.206-.653.177-.769-.537-1.295-1.11-1.718a3.85 3.85 0 0 1-.408-.325c-.258-.272-.693-.482-1.327-.01.012-.135.035-.289.051-.395.022-.138.043-.276.056-.408.074-.744-.73-1.334-2.382-1.756.907-3 3.27-5.244 6.21-6.026-.131.32-.235.69-.283 1.12-.027.25-.063.475-.095.674-.125.792-.267 1.69.87 2.196.621.277 1.054.323 1.402.36.153.016.282.03.415.06.04.192.014.588.005.75-.014.228-.03.473.043.678.094.518.546 2.412 2.307 3.633-.247.148-.573.3-.846.352-.149.028-.3.047-.448.065-.6.076-1.424.178-1.769 1.128-.153.42-.054.726.057.908.274.454.808.525 1.197.577.063.009.151.02.204.03.241.178.994.678 1.774.678.353 0 .711-.102 1.03-.383.129-.109.738-.102 1.03-.098.621.008 1.207.015 1.58-.363a.944.944 0 0 0 .271-.703c-.013-.535 1.012-1.11 1.835-1.573.199-.112.402-.226.6-.345a9.05 9.05 0 0 1-.154.862zm.21-2.487c-.185.235-.862.616-1.284.853-1.102.62-2.342 1.316-2.477 2.467-.161.013-.394.01-.565.008-.656-.007-1.398-.017-1.892.417-.213.187-.862-.101-1.233-.39-.208-.162-.456-.202-.72-.237.102-.026.248-.05.466-.076.159-.02.34-.043.529-.079.574-.11 2.072-.739 2.196-1.57a.797.797 0 0 0-.436-.836c-1.907-1.007-2.2-3.044-2.211-3.128l-.023-.18.008-.127c.038-.612.108-1.75-.79-2.025a3.9 3.9 0 0 0-.775-.14c-.31-.033-.578-.061-1.013-.255-.155-.07-.187-.115-.187-.115-.04-.08.018-.445.06-.711.034-.213.073-.454.103-.733.084-.75.386-1.22.674-1.539a8.968 8.968 0 0 1 5.325 1.292l-.065.07a3.16 3.16 0 0 0-.307.36l-2.291-.594-1.005 1.005a.886.886 0 0 0-.262.632c0 .239.093.464.262.633l.072.072 2.64 1.34.094.094 1.34 2.64.072.072a.888.888 0 0 0 .632.262c.24 0 .464-.093.632-.261l1.005-1.005-.605-2.339c.119-.088.232-.185.34-.291l.137-.127c.067.097.134.194.198.295a8.874 8.874 0 0 1 1.357 4.246zm4.456-2.735-.629.629-3.336-6.063-3.06 2.82-.018.018c-.14.14-.297.254-.466.337l-.468.23.671 2.591-.1.1-1.106-2.18-.383-.384-2.181-1.106.1-.1 2.553.661.228-.475c.084-.174.2-.335.345-.48l2.829-3.07-6.022-3.313.63-.63 7.1 2.126 2.498-2.669c.206-.203.472-.314.749-.314.245 0 .47.09.636.256.364.364.337.983-.058 1.385l-2.652 2.48 2.14 7.15z"/></mask><path d="m47.693 25.129.015-.015c.9-.902.93-2.339.065-3.204a2.164 2.164 0 0 0-1.543-.632 2.34 2.34 0 0 0-1.662.696l-1.978 2.114-7.073-2.118-1.466 1.467a.97.97 0 0 0-.287.69c0 .262.102.507.287.691l.064.065 5.11 2.812-.748.81a10.254 10.254 0 0 0-6.692-1.576l-.036-.04-.054.05c-4.246.503-7.741 3.596-8.714 7.866a10.137 10.137 0 0 0 1.31 7.7 10.137 10.137 0 0 0 6.373 4.516c.748.17 1.514.257 2.275.257 4.788 0 8.876-3.265 9.94-7.939.19-.834.275-1.675.257-2.509a1.15 1.15 0 0 0-.043-.7 10.151 10.151 0 0 0-1.855-4.98l.759-.7 2.834 5.15.065.064c.185.184.43.286.69.286a.97.97 0 0 0 .69-.286l1.467-1.466-2.131-7.122 2.08-1.947zM27.83 44.397a8.9 8.9 0 0 1-2.453-2.575 8.854 8.854 0 0 1-1.265-6.097c.571.154 1.148.382 1.37.54l-.027.178c-.086.556-.215 1.396.47 1.895.598.435 1.147.028 1.397-.183.1.081.21.162.322.245.176.13.486.358.597.497a7.173 7.173 0 0 1-.138.41c-.199.555-.405 1.128-.022 1.532.132.162.527.908.628 1.177-.003.09.004.191.012.324.01.137.03.445.009.57 0 0-.777.979-.733 1.21l-.168.277zm13.8-5.343a8.873 8.873 0 0 1-8.691 6.942 8.974 8.974 0 0 1-4.259-1.078c.626-.528 1.167-1.378 1.175-1.392.19-.32.18-.745.145-1.269-.005-.087-.012-.162-.01-.21-.001.03-.007.053-.01.07.102-.454-.516-1.501-.814-1.947.031-.118.097-.3.143-.431.078-.217.158-.44.206-.653.177-.769-.537-1.295-1.11-1.718a3.85 3.85 0 0 1-.408-.325c-.258-.272-.693-.482-1.327-.01.012-.135.035-.289.051-.395.022-.138.043-.276.056-.408.074-.744-.73-1.334-2.382-1.756.907-3 3.27-5.244 6.21-6.026-.131.32-.235.69-.283 1.12-.027.25-.063.475-.095.674-.125.792-.267 1.69.87 2.196.621.277 1.054.323 1.402.36.153.016.282.03.415.06.04.192.014.588.005.75-.014.228-.03.473.043.678.094.518.546 2.412 2.307 3.633-.247.148-.573.3-.846.352-.149.028-.3.047-.448.065-.6.076-1.424.178-1.769 1.128-.153.42-.054.726.057.908.274.454.808.525 1.197.577.063.009.151.02.204.03.241.178.994.678 1.774.678.353 0 .711-.102 1.03-.383.129-.109.738-.102 1.03-.098.621.008 1.207.015 1.58-.363a.944.944 0 0 0 .271-.703c-.013-.535 1.012-1.11 1.835-1.573.199-.112.402-.226.6-.345a9.05 9.05 0 0 1-.154.862zm.21-2.487c-.185.235-.862.616-1.284.853-1.102.62-2.342 1.316-2.477 2.467-.161.013-.394.01-.565.008-.656-.007-1.398-.017-1.892.417-.213.187-.862-.101-1.233-.39-.208-.162-.456-.202-.72-.237.102-.026.248-.05.466-.076.159-.02.34-.043.529-.079.574-.11 2.072-.739 2.196-1.57a.797.797 0 0 0-.436-.836c-1.907-1.007-2.2-3.044-2.211-3.128l-.023-.18.008-.127c.038-.612.108-1.75-.79-2.025a3.9 3.9 0 0 0-.775-.14c-.31-.033-.578-.061-1.013-.255-.155-.07-.187-.115-.187-.115-.04-.08.018-.445.06-.711.034-.213.073-.454.103-.733.084-.75.386-1.22.674-1.539a8.968 8.968 0 0 1 5.325 1.292l-.065.07a3.16 3.16 0 0 0-.307.36l-2.291-.594-1.005 1.005a.886.886 0 0 0-.262.632c0 .239.093.464.262.633l.072.072 2.64 1.34.094.094 1.34 2.64.072.072a.888.888 0 0 0 .632.262c.24 0 .464-.093.632-.261l1.005-1.005-.605-2.339c.119-.088.232-.185.34-.291l.137-.127c.067.097.134.194.198.295a8.874 8.874 0 0 1 1.357 4.246zm4.456-2.735-.629.629-3.336-6.063-3.06 2.82-.018.018c-.14.14-.297.254-.466.337l-.468.23.671 2.591-.1.1-1.106-2.18-.383-.384-2.181-1.106.1-.1 2.553.661.228-.475c.084-.174.2-.335.345-.48l2.829-3.07-6.022-3.313.63-.63 7.1 2.126 2.498-2.669c.206-.203.472-.314.749-.314.245 0 .47.09.636.256.364.364.337.983-.058 1.385l-2.652 2.48 2.14 7.15z" stroke="#000" stroke-width=".6" mask="url(#b)"/></g><defs><clipPath id="a"><path fill="#fff" transform="translate(22 22)" d="M0 0h26v26H0z"/></clipPath></defs></svg>