<svg width="27" height="27" fill="none" xmlns="http://www.w3.org/2000/svg"><circle cx="13.5" cy="13.502" r="13.5" fill="#0094F4"/><g clip-path="url(#a)"><path d="M20.828 8.958a6.264 6.264 0 0 1-1.731.475 2.988 2.988 0 0 0 1.322-1.66c-.581.345-1.223.59-1.906.726a3.004 3.004 0 0 0-5.198 2.055c0 .238.02.467.07.685a8.505 8.505 0 0 1-6.194-3.143 3.009 3.009 0 0 0 .923 4.016 2.966 2.966 0 0 1-1.357-.37v.033a3.019 3.019 0 0 0 2.408 2.953 2.998 2.998 0 0 1-.788.099c-.193 0-.387-.011-.57-.052a3.033 3.033 0 0 0 2.809 2.094A6.038 6.038 0 0 1 6.89 18.15c-.246 0-.483-.01-.72-.041a8.46 8.46 0 0 0 4.61 1.348c5.53 0 8.553-4.58 8.553-8.55 0-.133-.005-.261-.011-.389a5.994 5.994 0 0 0 1.506-1.56z" fill="#fff"/></g><defs><clipPath id="a"><path fill="#fff" transform="translate(6.17 6.174)" d="M0 0h14.657v14.657H0z"/></clipPath></defs></svg>