<svg width="50" height="50" fill="none" xmlns="http://www.w3.org/2000/svg"><g fill="#0094F4"><path d="M48.174 3.613H1.826A1.828 1.828 0 0 0 0 5.44V44.67c0 1.007.819 1.826 1.826 1.826h46.348A1.828 1.828 0 0 0 50 44.67V5.44a1.828 1.828 0 0 0-1.826-1.826zm-1.104 2.93v2.188l-17.126.041a1.804 1.804 0 0 0-1.23.486l-2.409 2.249H2.93V6.543h44.14zM2.93 43.566v-29.13h23.818a1.8 1.8 0 0 0 1.233-.486l2.41-2.25 16.68-.04v31.906H2.93z"/><path d="M9.491 9.346a1.772 1.772 0 0 0 .083.274 1.489 1.489 0 0 0 .424.573 1.43 1.43 0 0 0 .369.22 1.284 1.284 0 0 0 .273.083 1.272 1.272 0 0 0 .287.029 1.405 1.405 0 0 0 .56-.112 1.258 1.258 0 0 0 .253-.135 1.353 1.353 0 0 0 .223-.182 1.443 1.443 0 0 0 .316-.475 1.492 1.492 0 0 0 .105-.416 1.392 1.392 0 0 0 0-.289 1.4 1.4 0 0 0-.105-.415 1.649 1.649 0 0 0-.22-.37 1.283 1.283 0 0 0-.204-.203 1.267 1.267 0 0 0-.238-.159 1.571 1.571 0 0 0-.265-.11 1.511 1.511 0 0 0-.57-.057 1.497 1.497 0 0 0-.668.24 1.334 1.334 0 0 0-.222.183 1.28 1.28 0 0 0-.183.223 1.411 1.411 0 0 0-.183.387 1.383 1.383 0 0 0-.056.57c.005.047.012.095.021.141zM5.31 10.193a1.42 1.42 0 0 0 .24.16c.042.021.086.042.13.06a1.302 1.302 0 0 0 .273.083 1.358 1.358 0 0 0 .43.022 1.384 1.384 0 0 0 .282-.057 1.377 1.377 0 0 0 .61-.365 1.427 1.427 0 0 0 .256-.345 1.386 1.386 0 0 0 .11-.265 1.509 1.509 0 0 0 .056-.57 1.487 1.487 0 0 0-.325-.785 1.738 1.738 0 0 0-.204-.204 1.63 1.63 0 0 0-.239-.158 1.62 1.62 0 0 0-.264-.11 1.398 1.398 0 0 0-.712-.035 1.61 1.61 0 0 0-.403.145 1.854 1.854 0 0 0-.24.158 1.53 1.53 0 0 0-.362.444 1.445 1.445 0 0 0-.174.69 1.476 1.476 0 0 0 .536 1.132zM14.276 9.346a1.73 1.73 0 0 0 .083.274 1.615 1.615 0 0 0 .135.254 1.508 1.508 0 0 0 .29.32 1.532 1.532 0 0 0 .641.302 1.272 1.272 0 0 0 .287.029 1.392 1.392 0 0 0 .425-.064 1.272 1.272 0 0 0 .388-.183 1.532 1.532 0 0 0 .223-.182 1.508 1.508 0 0 0 .365-.61 1.311 1.311 0 0 0 .063-.426 1.413 1.413 0 0 0-.112-.56 1.31 1.31 0 0 0-.134-.252 1.533 1.533 0 0 0-.182-.223 1.422 1.422 0 0 0-.61-.365 1.548 1.548 0 0 0-.282-.057 1.453 1.453 0 0 0-.957.24 1.357 1.357 0 0 0-.223.182 1.436 1.436 0 0 0-.4.749 1.374 1.374 0 0 0-.021.43c.004.048.011.095.021.142zM18.894 21.998a1.465 1.465 0 0 0-2.07-.06l-6.175 5.822a1.54 1.54 0 0 0-.48 1.114c0 .42.176.827.481 1.115l6.173 5.82a1.462 1.462 0 0 0 2.07-.061 1.465 1.465 0 0 0-.06-2.07l-5.095-4.804 5.095-4.804a1.465 1.465 0 0 0 .061-2.072zM28.149 21.665a1.465 1.465 0 0 0-1.934.743l-5.229 11.74a1.465 1.465 0 1 0 2.677 1.192L28.89 23.6a1.465 1.465 0 0 0-.742-1.935zM33.177 21.938a1.465 1.465 0 0 0-2.01 2.131l5.096 4.805-5.096 4.804a1.465 1.465 0 1 0 2.01 2.132l6.173-5.821a1.54 1.54 0 0 0 .482-1.114c0-.42-.175-.827-.482-1.116l-6.173-5.821z"/></g></svg>