<svg width="25" height="25" fill="none" xmlns="http://www.w3.org/2000/svg"><g clip-path="url(#a)" fill="#0094F4"><path d="M10.052 11.952a12.412 12.412 0 0 0-6.39 3.424A12.426 12.426 0 0 0 0 24.218v.733h10.717l-2.533-8.183 1.868-4.816z"/><path d="M13.294 11.74a12.77 12.77 0 0 0-1.588 0l-1.971 5.082 2.515 8.13h.5l2.515-8.13-1.97-5.083z"/><path d="M21.34 15.376a12.412 12.412 0 0 0-6.391-3.424l1.867 4.816-2.532 8.183H25v-.733c0-3.34-1.3-6.48-3.661-8.842zM17.814 4.526A5.384 5.384 0 0 0 13.293 0a3.905 3.905 0 0 0 4.52 4.526zM12.5 10.689a5.38 5.38 0 0 0 5.327-4.684A5.361 5.361 0 0 1 12.5 3.39a5.361 5.361 0 0 1-5.327 2.616A5.38 5.38 0 0 0 12.5 10.69zM11.709 0a5.384 5.384 0 0 0-4.521 4.526c2.7.44 4.972-1.84 4.52-4.526z"/></g><defs><clipPath id="a"><path fill="#fff" d="M0 0h25v25H0z"/></clipPath></defs></svg>