<svg width="90" height="19" viewBox="0 0 90 19" fill="none" xmlns="http://www.w3.org/2000/svg">
<path d="M1.4 14.225C2.13333 16.4083 3.55 17.5 5.65 17.5C7.06667 17.5 8.05 17.1 8.6 16.3C9.16667 15.4833 9.45 14.3667 9.45 12.95V0.499999H10.2V12.95C10.2 16.4833 8.68333 18.25 5.65 18.25C4.21667 18.25 3.10833 17.8917 2.325 17.175C1.55833 16.4583 0.95 15.475 0.5 14.225H1.4ZM17.5477 17.25H25.6977L20.5727 5.175L15.1227 18H14.3227L20.5727 3.25L26.8227 18H17.5477V17.25ZM41.4998 3.5L35.2498 18.25L28.9998 3.5H29.7998L35.2498 16.325L40.6998 3.5H41.4998ZM55.2781 16.525C54.3615 17.675 52.8615 18.25 50.7781 18.25C48.6948 18.25 47.2031 17.6583 46.3031 16.475C45.4031 15.2917 44.9531 13.3833 44.9531 10.75C44.9531 8.11667 45.4031 6.20833 46.3031 5.025C47.2031 3.84167 48.6948 3.25 50.7781 3.25C53.1948 3.25 54.8365 4.04167 55.7031 5.625L49.5781 10.75H48.4031L54.7281 5.475C53.9948 4.49167 52.6781 4 50.7781 4C49.9448 4 49.2448 4.09167 48.6781 4.275C48.1115 4.44167 47.5865 4.76667 47.1031 5.25C46.6365 5.71667 46.2865 6.40833 46.0531 7.325C45.8198 8.225 45.7031 9.36667 45.7031 10.75C45.7031 12.1333 45.8198 13.2833 46.0531 14.2C46.2865 15.1 46.6365 15.7917 47.1031 16.275C47.5865 16.7417 48.1115 17.0667 48.6781 17.25C49.2448 17.4167 49.9448 17.5 50.7781 17.5C52.6781 17.5 53.9948 17.0083 54.7281 16.025L55.2781 16.525ZM68.8744 17.25V18H60.5244V3.5H61.2744V17.25H68.8744ZM73.0049 3.5H73.7549V18H73.0049V3.5ZM79.748 18V3.5H80.498L88.648 16.625V3.5H89.398V18H88.648L80.498 4.85V18H79.748Z" fill="#073C66"/>
<path d="M1.4 14.225L2.34796 13.9066L2.11902 13.225H1.4V14.225ZM8.6 16.3L7.7784 15.7299L7.77596 15.7335L8.6 16.3ZM9.45 0.499998V-0.500002H8.45V0.499998H9.45ZM10.2 0.499998H11.2V-0.500002H10.2V0.499998ZM2.325 17.175L1.64208 17.9056L1.64999 17.9128L2.325 17.175ZM0.5 14.225V13.225H-0.922826L-0.440887 14.5637L0.5 14.225ZM0.452043 14.5434C0.863788 15.7693 1.49728 16.7761 2.40211 17.4734C3.31459 18.1765 4.41912 18.5 5.65 18.5V16.5C4.78088 16.5 4.12708 16.2777 3.62289 15.8891C3.11106 15.4947 2.66955 14.8641 2.34796 13.9066L0.452043 14.5434ZM5.65 18.5C7.23496 18.5 8.61182 18.0479 9.42404 16.8665L7.77596 15.7335C7.48818 16.1521 6.89837 16.5 5.65 16.5V18.5ZM9.42159 16.8701C10.1442 15.8286 10.45 14.4872 10.45 12.95H8.45C8.45 14.2462 8.1891 15.138 7.77841 15.7299L9.42159 16.8701ZM10.45 12.95V0.499998H8.45V12.95H10.45ZM9.45 1.5H10.2V-0.500002H9.45V1.5ZM9.2 0.499998V12.95H11.2V0.499998H9.2ZM9.2 12.95C9.2 14.5967 8.84332 15.6451 8.30375 16.2736C7.78924 16.8729 6.9693 17.25 5.65 17.25V19.25C7.36403 19.25 8.81909 18.7437 9.82125 17.5764C10.7983 16.4382 11.2 14.8366 11.2 12.95H9.2ZM5.65 17.25C4.37776 17.25 3.54258 16.9336 3.00001 16.4372L1.64999 17.9128C2.67409 18.8497 4.05557 19.25 5.65 19.25V17.25ZM3.00788 16.4445C2.38377 15.8611 1.85109 15.0257 1.44089 13.8863L-0.440887 14.5637C0.0489077 15.9243 0.7329 17.0556 1.64212 17.9055L3.00788 16.4445ZM0.5 15.225H1.4V13.225H0.5V15.225ZM17.5477 17.25V16.25H16.5477V17.25H17.5477ZM25.6977 17.25V18.25H27.2084L26.6182 16.8593L25.6977 17.25ZM20.5727 5.175L21.4932 4.7843L20.5732 2.6168L19.6523 4.7839L20.5727 5.175ZM15.1227 18V19H15.7843L16.043 18.3911L15.1227 18ZM14.3227 18L13.4019 17.6099L12.8129 19H14.3227V18ZM20.5727 3.25L21.4934 2.85985L20.5727 0.686876L19.6519 2.85985L20.5727 3.25ZM26.8227 18V19H28.3325L27.7434 17.6099L26.8227 18ZM17.5477 18H16.5477V19H17.5477V18ZM17.5477 18.25H25.6977V16.25H17.5477V18.25ZM26.6182 16.8593L21.4932 4.7843L19.6521 5.5657L24.7771 17.6407L26.6182 16.8593ZM19.6523 4.7839L14.2023 17.6089L16.043 18.3911L21.493 5.5661L19.6523 4.7839ZM15.1227 17H14.3227V19H15.1227V17ZM15.2434 18.3901L21.4934 3.64015L19.6519 2.85985L13.4019 17.6099L15.2434 18.3901ZM19.6519 3.64015L25.9019 18.3901L27.7434 17.6099L21.4934 2.85985L19.6519 3.64015ZM26.8227 17H17.5477V19H26.8227V17ZM18.5477 18V17.25H16.5477V18H18.5477ZM41.4998 3.5L42.4206 3.89015L43.0096 2.5H41.4998V3.5ZM35.2498 18.25L34.3291 18.6401L35.2498 20.8131L36.1706 18.6401L35.2498 18.25ZM28.9998 3.5V2.5H27.49L28.0791 3.89015L28.9998 3.5ZM29.7998 3.5L30.7202 3.1089L30.4614 2.5H29.7998V3.5ZM35.2498 16.325L34.3295 16.7161L35.2498 18.8819L36.1702 16.7161L35.2498 16.325ZM40.6998 3.5V2.5H40.0382L39.7795 3.1089L40.6998 3.5ZM40.5791 3.10985L34.3291 17.8599L36.1706 18.6401L42.4206 3.89015L40.5791 3.10985ZM36.1706 17.8599L29.9206 3.10985L28.0791 3.89015L34.3291 18.6401L36.1706 17.8599ZM28.9998 4.5H29.7998V2.5H28.9998V4.5ZM28.8795 3.8911L34.3295 16.7161L36.1702 15.9339L30.7202 3.1089L28.8795 3.8911ZM36.1702 16.7161L41.6202 3.8911L39.7795 3.1089L34.3295 15.9339L36.1702 16.7161ZM40.6998 4.5H41.4998V2.5H40.6998V4.5ZM55.2781 16.525L56.0601 17.1483L56.6442 16.4155L55.9508 15.7851L55.2781 16.525ZM46.3031 16.475L47.0991 15.8696L46.3031 16.475ZM46.3031 5.025L45.5072 4.41963L46.3031 5.025ZM55.7031 5.625L56.3448 6.39194L56.9745 5.86506L56.5803 5.14485L55.7031 5.625ZM49.5781 10.75V11.75H49.9413L50.2198 11.5169L49.5781 10.75ZM48.4031 10.75L47.7626 9.98203L45.6427 11.75H48.4031V10.75ZM54.7281 5.475L55.3686 6.24297L56.0959 5.63638L55.5298 4.87717L54.7281 5.475ZM48.6781 4.275L48.9603 5.23437L48.9732 5.23058L48.9859 5.22644L48.6781 4.275ZM47.1031 5.25L46.396 4.54289L47.1031 5.25ZM46.0531 7.325L47.0211 7.57596L47.0222 7.57168L46.0531 7.325ZM46.0531 14.2L45.084 14.4467L45.0851 14.451L46.0531 14.2ZM47.1031 16.275L46.3837 16.9696L46.3959 16.9822L46.4085 16.9944L47.1031 16.275ZM48.6781 17.25L48.3703 18.2014L48.3831 18.2056L48.396 18.2094L48.6781 17.25ZM54.7281 16.025L55.4008 15.2851L54.5853 14.5437L53.9265 15.4272L54.7281 16.025ZM54.4962 15.9017C53.839 16.7261 52.6901 17.25 50.7781 17.25V19.25C53.0328 19.25 54.8839 18.6239 56.0601 17.1483L54.4962 15.9017ZM50.7781 17.25C48.874 17.25 47.7418 16.7147 47.0991 15.8696L45.5072 17.0804C46.6645 18.602 48.5155 19.25 50.7781 19.25V17.25ZM47.0991 15.8696C46.4 14.9504 45.9531 13.3143 45.9531 10.75H43.9531C43.9531 13.4523 44.4063 15.6329 45.5072 17.0804L47.0991 15.8696ZM45.9531 10.75C45.9531 8.18567 46.4 6.54957 47.0991 5.63037L45.5072 4.41963C44.4063 5.86709 43.9531 8.04766 43.9531 10.75H45.9531ZM47.0991 5.63037C47.7418 4.78534 48.874 4.25 50.7781 4.25V2.25C48.5155 2.25 46.6645 2.89799 45.5072 4.41963L47.0991 5.63037ZM50.7781 4.25C52.9716 4.25 54.1938 4.95025 54.8259 6.10514L56.5803 5.14485C55.4791 3.13308 53.418 2.25 50.7781 2.25V4.25ZM55.0614 4.85806L48.9364 9.98306L50.2198 11.5169L56.3448 6.39194L55.0614 4.85806ZM49.5781 9.75H48.4031V11.75H49.5781V9.75ZM49.0436 11.518L55.3686 6.24297L54.0876 4.70703L47.7626 9.98203L49.0436 11.518ZM55.5298 4.87717C54.5222 3.5261 52.8164 3 50.7781 3V5C52.5399 5 53.4674 5.45723 53.9265 6.07282L55.5298 4.87717ZM50.7781 3C49.8786 3 49.0673 3.09806 48.3703 3.32355L48.9859 5.22644C49.4223 5.08528 50.0109 5 50.7781 5V3ZM48.396 3.31563C47.6451 3.53646 46.9789 3.95998 46.396 4.54289L47.8102 5.95711C48.194 5.57335 48.5778 5.34687 48.9603 5.23437L48.396 3.31563ZM46.396 4.54289C45.7587 5.18021 45.3436 6.0587 45.084 7.07832L47.0222 7.57168C47.2294 6.75797 47.5142 6.25313 47.8102 5.95711L46.396 4.54289ZM45.0851 7.07404C44.8229 8.08534 44.7031 9.31889 44.7031 10.75H46.7031C46.7031 9.41444 46.8166 8.36466 47.0211 7.57596L45.0851 7.07404ZM44.7031 10.75C44.7031 12.1819 44.8231 13.4216 45.084 14.4467L47.0222 13.9533C46.8165 13.145 46.7031 12.0847 46.7031 10.75H44.7031ZM45.0851 14.451C45.3459 15.4568 45.7601 16.3237 46.3837 16.9696L47.8225 15.5804C47.5128 15.2596 47.227 14.7432 47.0211 13.949L45.0851 14.451ZM46.4085 16.9944C46.9873 17.5532 47.6411 17.9655 48.3703 18.2014L48.9859 16.2986C48.5818 16.1678 48.1856 15.9301 47.7977 15.5556L46.4085 16.9944ZM48.396 18.2094C49.0833 18.4115 49.8851 18.5 50.7781 18.5V16.5C50.0044 16.5 49.4063 16.4218 48.9603 16.2906L48.396 18.2094ZM50.7781 18.5C52.8164 18.5 54.5222 17.9739 55.5298 16.6228L53.9265 15.4272C53.4674 16.0428 52.5399 16.5 50.7781 16.5V18.5ZM54.0555 16.7649L54.6055 17.2649L55.9508 15.7851L55.4008 15.2851L54.0555 16.7649ZM68.8744 17.25H69.8744V16.25H68.8744V17.25ZM68.8744 18V19H69.8744V18H68.8744ZM60.5244 18H59.5244V19H60.5244V18ZM60.5244 3.5V2.5H59.5244V3.5H60.5244ZM61.2744 3.5H62.2744V2.5H61.2744V3.5ZM61.2744 17.25H60.2744V18.25H61.2744V17.25ZM67.8744 17.25V18H69.8744V17.25H67.8744ZM68.8744 17H60.5244V19H68.8744V17ZM61.5244 18V3.5H59.5244V18H61.5244ZM60.5244 4.5H61.2744V2.5H60.5244V4.5ZM60.2744 3.5V17.25H62.2744V3.5H60.2744ZM61.2744 18.25H68.8744V16.25H61.2744V18.25ZM73.0049 3.5V2.5H72.0049V3.5H73.0049ZM73.7549 3.5H74.7549V2.5H73.7549V3.5ZM73.7549 18V19H74.7549V18H73.7549ZM73.0049 18H72.0049V19H73.0049V18ZM73.0049 4.5H73.7549V2.5H73.0049V4.5ZM72.7549 3.5V18H74.7549V3.5H72.7549ZM73.7549 17H73.0049V19H73.7549V17ZM74.0049 18V3.5H72.0049V18H74.0049ZM79.748 18H78.748V19H79.748V18ZM79.748 3.5V2.5H78.748V3.5H79.748ZM80.498 3.5L81.3476 2.97248L81.0542 2.5H80.498V3.5ZM88.648 16.625L87.7985 17.1525L89.648 20.1311V16.625H88.648ZM88.648 3.5V2.5H87.648V3.5H88.648ZM89.398 3.5H90.398V2.5H89.398V3.5ZM89.398 18V19H90.398V18H89.398ZM88.648 18L87.7981 18.5268L88.0913 19H88.648V18ZM80.498 4.85L81.348 4.3232L79.498 1.33825V4.85H80.498ZM80.498 18V19H81.498V18H80.498ZM80.748 18V3.5H78.748V18H80.748ZM79.748 4.5H80.498V2.5H79.748V4.5ZM79.6485 4.02752L87.7985 17.1525L89.4976 16.0975L81.3476 2.97248L79.6485 4.02752ZM89.648 16.625V3.5H87.648V16.625H89.648ZM88.648 4.5H89.398V2.5H88.648V4.5ZM88.398 3.5V18H90.398V3.5H88.398ZM89.398 17H88.648V19H89.398V17ZM89.498 17.4732L81.348 4.3232L79.6481 5.3768L87.7981 18.5268L89.498 17.4732ZM79.498 4.85V18H81.498V4.85H79.498ZM80.498 17H79.748V19H80.498V17Z" fill="#073C66"/>
</svg>
