<svg width="75" height="75" viewBox="0 0 75 75" fill="none" xmlns="http://www.w3.org/2000/svg">
<g opacity="0.45">
<path d="M29.6875 48.6999V26.2999C29.688 26.0196 29.7638 25.7447 29.9071 25.5038C30.0503 25.2629 30.2558 25.065 30.5018 24.9308C30.7478 24.7966 31.0254 24.731 31.3055 24.741C31.5856 24.7509 31.8579 24.836 32.0938 24.9874L49.5187 36.1843C49.7394 36.3256 49.9209 36.5202 50.0467 36.7501C50.1724 36.98 50.2383 37.2378 50.2383 37.4999C50.2383 37.7619 50.1724 38.0198 50.0467 38.2497C49.9209 38.4796 49.7394 38.6741 49.5187 38.8155L32.0938 50.0155C31.8579 50.1669 31.5856 50.252 31.3055 50.2619C31.0254 50.2719 30.7478 50.2063 30.5018 50.0721C30.2558 49.9379 30.0503 49.74 29.9071 49.4991C29.7638 49.2583 29.688 48.9833 29.6875 48.703V48.6999Z" fill="white"/>
</g>
</svg>
