<svg width="5" height="8" viewBox="0 0 5 8" fill="none" xmlns="http://www.w3.org/2000/svg">
<path d="M0.309698 0.30982C0.211758 0.407789 0.156738 0.540647 0.156738 0.679176C0.156738 0.817705 0.211758 0.950562 0.309698 1.04853L2.89571 3.63454L0.309698 6.22056C0.214534 6.31909 0.161876 6.45105 0.163066 6.58803C0.164256 6.72501 0.2192 6.85604 0.316062 6.95291C0.412924 7.04977 0.543955 7.10471 0.680934 7.1059C0.817912 7.10709 0.949879 7.05443 1.04841 6.95927L4.00378 4.0039C4.10172 3.90593 4.15674 3.77307 4.15674 3.63454C4.15674 3.49602 4.10172 3.36316 4.00378 3.26519L1.04841 0.30982C0.95044 0.21188 0.817583 0.15686 0.679054 0.15686C0.540525 0.15686 0.407667 0.21188 0.309698 0.30982Z" fill="#D56C20"/>
</svg>
