<svg width="18" height="14" viewBox="0 0 18 14" fill="none" xmlns="http://www.w3.org/2000/svg">
<path fill-rule="evenodd" clip-rule="evenodd" d="M0 5C0 4.73478 0.118526 4.48043 0.329505 4.29289C0.540483 4.10536 0.826631 4 1.125 4H12.7215C13.0199 4 13.306 4.10536 13.517 4.29289C13.728 4.48043 13.8465 4.73478 13.8465 5C13.8465 5.26522 13.728 5.51957 13.517 5.70711C13.306 5.89464 13.0199 6 12.7215 6H1.125C0.826631 6 0.540483 5.89464 0.329505 5.70711C0.118526 5.51957 0 5.26522 0 5ZM0 1C0 0.734784 0.118526 0.48043 0.329505 0.292893C0.540483 0.105357 0.826631 0 1.125 0H16.875C17.1734 0 17.4595 0.105357 17.6705 0.292893C17.8815 0.48043 18 0.734784 18 1C18 1.26522 17.8815 1.51957 17.6705 1.70711C17.4595 1.89464 17.1734 2 16.875 2H1.125C0.826631 2 0.540483 1.89464 0.329505 1.70711C0.118526 1.51957 0 1.26522 0 1ZM0 9C0 8.73478 0.118526 8.48043 0.329505 8.29289C0.540483 8.10536 0.826631 8 1.125 8H16.875C17.1734 8 17.4595 8.10536 17.6705 8.29289C17.8815 8.48043 18 8.73478 18 9C18 9.26522 17.8815 9.51957 17.6705 9.70711C17.4595 9.89464 17.1734 10 16.875 10H1.125C0.826631 10 0.540483 9.89464 0.329505 9.70711C0.118526 9.51957 0 9.26522 0 9ZM0 13C0 12.7348 0.118526 12.4804 0.329505 12.2929C0.540483 12.1054 0.826631 12 1.125 12H12.7215C13.0199 12 13.306 12.1054 13.517 12.2929C13.728 12.4804 13.8465 12.7348 13.8465 13C13.8465 13.2652 13.728 13.5196 13.517 13.7071C13.306 13.8946 13.0199 14 12.7215 14H1.125C0.826631 14 0.540483 13.8946 0.329505 13.7071C0.118526 13.5196 0 13.2652 0 13Z" fill="white"/>
</svg>
