<svg width="142" height="41" fill="none" xmlns="http://www.w3.org/2000/svg"><g clip-path="url(#a)"><path d="M.428 30.43a3.457 3.457 0 0 0 1.244 1.329l14.075 8.605a4.308 4.308 0 0 0 4.504 0l14.075-8.605c.343-.21.64-.477.886-.785l.126-.169A3.644 3.644 0 0 0 36 28.704V12.317c0-.579-.136-1.136-.383-1.633l-.099-.186a3.45 3.45 0 0 0-1.19-1.236L20.253.639a4.305 4.305 0 0 0-4.512 0L1.67 9.262C.635 9.896 0 11.059 0 12.315v16.387c0 .541.119 1.065.337 1.538l.091.19z" fill="#0094F4"/><path d="M10.29 30.413c-.528 0-.957-.45-.957-1.004V11.585c0-.554.43-1.004.958-1.004h2.966c.724 0 1.313.616 1.313 1.377v5.234l-2.878 3.547-.062-.052a.26.26 0 0 0-.275-.037l-.923.42a.22.22 0 0 0-.124.174l-.126 1.025c-.01.077.02.154.079.201l.791.651a.26.26 0 0 0 .275.038l.924-.42a.22.22 0 0 0 .124-.174l.126-1.023a.226.226 0 0 0-.08-.203l-.042-.036 2.19-2.702v.026l6.14-7.563c.25-.308.615-.483.999-.483h3.451c.826 0 1.264 1.022.719 1.67l-5.748 6.83.002.004-.986 1.168-.062-.053a.264.264 0 0 0-.275-.044l-.929.401a.223.223 0 0 0-.13.176l-.144 1.018a.232.232 0 0 0 .077.208l.776.667a.26.26 0 0 0 .273.043l.93-.4a.223.223 0 0 0 .13-.174l.144-1.019a.225.225 0 0 0-.075-.205l-.043-.037.818-.97 5.86 8.98c.437.667-.018 1.573-.79 1.573h-5.018c-.432 0-.837-.223-1.081-.598l-3.367-5.15.058-.045a.262.262 0 0 0 .096-.245l-.133-.95a.197.197 0 0 0-.119-.158l-.825-.359a.181.181 0 0 0-.189.026l-.733.574a.267.267 0 0 0-.096.245l.133.95c.01.07.055.132.119.16l.826.357a.188.188 0 0 0 .19-.024l.04-.032.806 1.234-.995 3.082c-.18.558-.68.935-1.243.935H10.29v-.006z" fill="#fff"/></g><path d="M42.74 27V12.9h1.64v6.4h.04l6.84-6.4h2.1L46 19.76 53.8 27h-2.16l-7.22-6.64h-.04V27h-1.64zm16.445.18c-1.533 0-2.747-.447-3.64-1.34-.893-.907-1.34-2.133-1.34-3.68 0-1 .2-1.88.6-2.64.4-.773.947-1.367 1.64-1.78.707-.427 1.52-.64 2.44-.64 1.32 0 2.354.427 3.1 1.28.747.84 1.12 2 1.12 3.48v.62h-7.32c.054 1.107.373 1.953.96 2.54.587.573 1.4.86 2.44.86.587 0 1.147-.087 1.68-.26a4.72 4.72 0 0 0 1.52-.9l.56 1.14c-.44.413-1 .74-1.68.98-.68.227-1.373.34-2.08.34zm-.26-8.88c-.92 0-1.646.287-2.18.86-.533.573-.846 1.327-.94 2.26h5.9c-.04-.987-.3-1.753-.78-2.3-.466-.547-1.133-.82-2-.82zM65.45 27v-9.72h1.58v1.74c.52-1.173 1.586-1.82 3.2-1.94l.58-.06.12 1.4-1.02.12c-.92.08-1.62.373-2.1.88-.48.493-.72 1.173-.72 2.04V27h-1.64zm7.168 0v-9.72h1.58v1.66a3.164 3.164 0 0 1 1.36-1.38c.586-.307 1.246-.46 1.98-.46 2.306 0 3.46 1.28 3.46 3.84V27h-1.62v-5.96c0-.907-.18-1.567-.54-1.98-.347-.427-.907-.64-1.68-.64-.894 0-1.607.28-2.14.84-.52.547-.78 1.28-.78 2.2V27h-1.62zm15.747.18c-1.533 0-2.747-.447-3.64-1.34-.893-.907-1.34-2.133-1.34-3.68 0-1 .2-1.88.6-2.64.4-.773.947-1.367 1.64-1.78.707-.427 1.52-.64 2.44-.64 1.32 0 2.353.427 3.1 1.28.746.84 1.12 2 1.12 3.48v.62h-7.32c.053 1.107.373 1.953.96 2.54.587.573 1.4.86 2.44.86.587 0 1.147-.087 1.68-.26a4.719 4.719 0 0 0 1.52-.9l.56 1.14c-.44.413-1 .74-1.68.98-.68.227-1.373.34-2.08.34zm-.26-8.88c-.92 0-1.647.287-2.18.86-.534.573-.847 1.327-.94 2.26h5.9c-.04-.987-.3-1.753-.78-2.3-.467-.547-1.133-.82-2-.82zm9.504 8.88c-.986 0-1.733-.287-2.24-.86-.493-.587-.74-1.433-.74-2.54V12.9h1.62v10.76c0 1.427.567 2.14 1.7 2.14.334 0 .634-.04.9-.12l-.04 1.36c-.413.093-.813.14-1.2.14zm6.358-.18V15.04h-4.84V12.9h12.24v2.14h-4.84V27h-2.56zm12.04.2c-1.107 0-2.06-.207-2.86-.62-.8-.413-1.42-1-1.86-1.76-.427-.76-.64-1.66-.64-2.7 0-1.013.206-1.9.62-2.66a4.642 4.642 0 0 1 1.74-1.78c.746-.44 1.593-.66 2.54-.66 1.386 0 2.48.44 3.28 1.32.813.88 1.22 2.08 1.22 3.6v.74h-7c.186 1.747 1.186 2.62 3 2.62.546 0 1.093-.08 1.64-.24a4.67 4.67 0 0 0 1.5-.8l.7 1.68c-.467.387-1.054.693-1.76.92a6.91 6.91 0 0 1-2.12.34zm-.36-8.48c-.734 0-1.327.227-1.78.68-.454.453-.727 1.067-.82 1.84h4.92c-.054-.813-.28-1.433-.68-1.86-.387-.44-.934-.66-1.64-.66zm10.9 8.48c-1.027 0-1.92-.207-2.68-.62a4.4 4.4 0 0 1-1.76-1.8c-.414-.773-.62-1.68-.62-2.72 0-1.04.206-1.933.62-2.68.413-.76 1-1.34 1.76-1.74.76-.413 1.653-.62 2.68-.62.626 0 1.246.1 1.86.3.613.2 1.12.48 1.52.84l-.74 1.74a3.647 3.647 0 0 0-1.18-.7c-.427-.16-.84-.24-1.24-.24-.867 0-1.54.273-2.02.82-.467.533-.7 1.3-.7 2.3 0 .987.233 1.767.7 2.34.48.56 1.153.84 2.02.84.386 0 .8-.08 1.24-.24.44-.16.833-.4 1.18-.72l.74 1.76c-.4.347-.914.627-1.54.84-.614.2-1.227.3-1.84.3zm4.913-.2V12.9h2.5v5.74c.333-.533.78-.933 1.34-1.2a4.1 4.1 0 0 1 1.86-.42c2.307 0 3.46 1.34 3.46 4.02V27h-2.5v-5.84c0-.76-.147-1.313-.44-1.66-.28-.347-.72-.52-1.32-.52-.733 0-1.32.233-1.76.7-.427.453-.64 1.06-.64 1.82V27h-2.5z" fill="#fff"/><defs><clipPath id="a"><path fill="#fff" d="M0 0h36v41H0z"/></clipPath></defs></svg>